<svg xmlns="http://www.w3.org/2000/svg" width="49.575" height="36.123" viewBox="0 0 49.575 36.123">
  <g id="beauty-blog" transform="translate(-222.029 -422.495)">
    <text id="Beauty" transform="translate(229.605 437.495)" fill="#d6b980" font-size="14" font-family="SegoeUI, Segoe UI"><tspan x="0" y="0">Beauty</tspan></text>
    <text id="BLOG" transform="translate(224.107 453.618)" fill="#d6b980" font-size="17" font-family="Lora-Regular, Lora"><tspan x="0" y="0">BLOG</tspan></text>
    <g id="Group_167" data-name="Group 167" transform="translate(222.098 437.306)">
      <g id="Group_148" data-name="Group 148" transform="translate(5.704 1.868)">
        <path id="Path_125" data-name="Path 125" d="M261.245,239.505a10.121,10.121,0,0,1,4.523-.6c4.465.517,4.989-2,4.989-2" transform="translate(-261.245 -236.792)" fill="none" stroke="#52870e" stroke-miterlimit="10" stroke-width="0.5"/>
        <g id="Group_143" data-name="Group 143" transform="translate(7.951 0.112)">
          <path id="Path_126" data-name="Path 126" d="M307.148,236.9s.358,1.885-1.561,1.664A1.9,1.9,0,0,1,307.148,236.9Z" transform="translate(-305.587 -236.904)" fill="#82c241"/>
          <path id="Path_127" data-name="Path 127" d="M305.595,238.565a1.889,1.889,0,0,1,1.55-1.649,1.458,1.458,0,0,1-.171.436A2.666,2.666,0,0,1,305.595,238.565Z" transform="translate(-305.594 -236.914)" fill="#82c241" opacity="0.7" style="mix-blend-mode: multiply;isolation: isolate"/>
          <path id="Path_128" data-name="Path 128" d="M311.485,238.58l-.464.133-.137-.648" transform="translate(-309.934 -237.857)" fill="none" stroke="#52870e" stroke-miterlimit="10" stroke-width="0.5"/>
          <path id="Path_129" data-name="Path 129" d="M309.058,241.025l-.649-.03-.149-.665" transform="translate(-307.781 -239.715)" fill="none" stroke="#52870e" stroke-miterlimit="10" stroke-width="0.5"/>
          <path id="Path_130" data-name="Path 130" d="M306.945,243.757l-.419-.116-.061-.4" transform="translate(-306.308 -242.103)" fill="none" stroke="#52870e" stroke-miterlimit="10" stroke-width="0.5"/>
        </g>
        <g id="Group_144" data-name="Group 144" transform="translate(4.632 0.848)">
          <path id="Path_131" data-name="Path 131" d="M289.333,241.081a1.784,1.784,0,0,1-2.255,1.228S287.158,240.64,289.333,241.081Z" transform="translate(-287.078 -241.007)" fill="#82c241"/>
          <path id="Path_132" data-name="Path 132" d="M287.078,242.858s0-.011,0-.028a5.81,5.81,0,0,0,2.241-1.154A1.793,1.793,0,0,1,287.078,242.858Z" transform="translate(-287.078 -241.556)" fill="#82c241" opacity="0.7" style="mix-blend-mode: multiply;isolation: isolate"/>
          <path id="Path_133" data-name="Path 133" d="M289.333,241.42a5.246,5.246,0,0,1-2.255,1.228" transform="translate(-287.078 -241.346)" fill="none" stroke="#52870e" stroke-miterlimit="10" stroke-width="0.5"/>
          <path id="Path_134" data-name="Path 134" d="M297.386,241.519l-.274-.04-.025-.423" transform="translate(-295.293 -241.046)" fill="none" stroke="#52870e" stroke-miterlimit="10" stroke-width="0.5"/>
          <path id="Path_135" data-name="Path 135" d="M293.718,242.175l-.517-.116.079-.861" transform="translate(-292.104 -241.163)" fill="none" stroke="#52870e" stroke-miterlimit="10" stroke-width="0.5"/>
          <path id="Path_136" data-name="Path 136" d="M289.749,243.9l-.352-.133.073-.851" transform="translate(-288.982 -242.576)" fill="none" stroke="#52870e" stroke-miterlimit="10" stroke-width="0.5"/>
        </g>
        <g id="Group_145" data-name="Group 145" transform="translate(6.538 1.986)">
          <path id="Path_137" data-name="Path 137" d="M297.708,247.514a1.494,1.494,0,0,1,2.065.794A1.605,1.605,0,0,1,297.708,247.514Z" transform="translate(-297.708 -247.357)" fill="#82c241"/>
          <path id="Path_138" data-name="Path 138" d="M299.77,248.3a3.752,3.752,0,0,0-1.229-.6c-.429-.1-.689-.15-.825-.171l-.008-.015A1.494,1.494,0,0,1,299.77,248.3Z" transform="translate(-297.708 -247.358)" fill="#82c241" opacity="0.7" style="mix-blend-mode: multiply;isolation: isolate"/>
          <path id="Path_139" data-name="Path 139" d="M299.773,249.027a4.673,4.673,0,0,0-2.065-.794" transform="translate(-297.708 -248.076)" fill="none" stroke="#52870e" stroke-miterlimit="10" stroke-width="0.5"/>
          <path id="Path_140" data-name="Path 140" d="M305.752,249.94l-.379.092.123.518" transform="translate(-303.999 -249.477)" fill="none" stroke="#52870e" stroke-miterlimit="10" stroke-width="0.5"/>
          <path id="Path_141" data-name="Path 141" d="M302.833,248.216l-.48.189.193.686" transform="translate(-301.52 -248.062)" fill="none" stroke="#52870e" stroke-miterlimit="10" stroke-width="0.5"/>
          <path id="Path_142" data-name="Path 142" d="M299.881,247.36l-.386.208.135.548" transform="translate(-299.174 -247.359)" fill="none" stroke="#52870e" stroke-miterlimit="10" stroke-width="0.5"/>
        </g>
        <g id="Group_146" data-name="Group 146" transform="translate(3.429 2.005)">
          <path id="Path_143" data-name="Path 143" d="M280.372,247.463a1.751,1.751,0,0,1,1.908,1.458S280.247,249.3,280.372,247.463Z" transform="translate(-280.366 -247.46)" fill="#82c241"/>
          <path id="Path_144" data-name="Path 144" d="M280.4,247.463a1.751,1.751,0,0,1,1.908,1.458l-.022,0a5.424,5.424,0,0,1-1.3-.747,3.828,3.828,0,0,1-.588-.706S280.4,247.466,280.4,247.463Z" transform="translate(-280.391 -247.46)" fill="#82c241" opacity="0.7" style="mix-blend-mode: multiply;isolation: isolate"/>
          <path id="Path_145" data-name="Path 145" d="M282.3,248.937a3.664,3.664,0,0,1-1.908-1.458" transform="translate(-280.391 -247.476)" fill="none" stroke="#52870e" stroke-miterlimit="10" stroke-width="0.5"/>
          <path id="Path_146" data-name="Path 146" d="M287.546,253.395l-.637.057.073.361" transform="translate(-285.736 -252.33)" fill="none" stroke="#52870e" stroke-miterlimit="10" stroke-width="0.5"/>
          <path id="Path_147" data-name="Path 147" d="M284.935,250.676l-.86.2.063.583" transform="translate(-283.41 -250.099)" fill="none" stroke="#52870e" stroke-miterlimit="10" stroke-width="0.5"/>
          <path id="Path_148" data-name="Path 148" d="M282.3,248.456l-.76.116-.012.6" transform="translate(-281.316 -248.277)" fill="none" stroke="#52870e" stroke-miterlimit="10" stroke-width="0.5"/>
        </g>
        <g id="Group_147" data-name="Group 147" transform="translate(2.233)">
          <path id="Path_149" data-name="Path 149" d="M275.69,236.279s.476,1.849-1.965,2.135C273.725,238.414,273.3,236.514,275.69,236.279Z" transform="translate(-273.696 -236.279)" fill="#82c241"/>
          <path id="Path_150" data-name="Path 150" d="M273.872,238.5a4.743,4.743,0,0,1,1.966-2.115C275.881,236.584,276.163,238.233,273.872,238.5Z" transform="translate(-273.841 -236.368)" fill="#82c241" opacity="0.7" style="mix-blend-mode: multiply;isolation: isolate"/>
          <path id="Path_151" data-name="Path 151" d="M275.821,236.279a4.905,4.905,0,0,0-1.965,2.135" transform="translate(-273.827 -236.279)" fill="none" stroke="#52870e" stroke-miterlimit="10" stroke-width="0.5"/>
          <path id="Path_152" data-name="Path 152" d="M280.848,237.674l-.9.138.012-.456" transform="translate(-278.823 -237.162)" fill="none" stroke="#52870e" stroke-miterlimit="10" stroke-width="0.5"/>
          <path id="Path_153" data-name="Path 153" d="M277.955,240l-1.106-.088-.061-.666" transform="translate(-276.234 -238.714)" fill="none" stroke="#52870e" stroke-miterlimit="10" stroke-width="0.5"/>
          <path id="Path_154" data-name="Path 154" d="M275.256,243.433l-.821-.06-.1-.631" transform="translate(-274.224 -241.583)" fill="none" stroke="#52870e" stroke-miterlimit="10" stroke-width="0.5"/>
        </g>
      </g>
      <g id="Group_154" data-name="Group 154" transform="translate(2.92 6.085)">
        <path id="Path_155" data-name="Path 155" d="M252.6,259.8a10.935,10.935,0,0,1-.19,4.516c-1.178,4.337,1.229,5.232,1.229,5.232" transform="translate(-250.942 -259.799)" fill="none" stroke="#52870e" stroke-miterlimit="10" stroke-width="0.5"/>
        <g id="Group_149" data-name="Group 149" transform="translate(1.197 7.955)">
          <path id="Path_156" data-name="Path 156" d="M253.895,305.956s-1.917.072-1.413-1.793A1.9,1.9,0,0,1,253.895,305.956Z" transform="translate(-252.397 -304.163)" fill="#82c241"/>
          <path id="Path_157" data-name="Path 157" d="M252.941,304.182a1.889,1.889,0,0,1,1.4,1.779,1.456,1.456,0,0,1-.405-.234A2.666,2.666,0,0,1,252.941,304.182Z" transform="translate(-252.844 -304.179)" fill="#82c241" opacity="0.7" style="mix-blend-mode: multiply;isolation: isolate"/>
          <path id="Path_158" data-name="Path 158" d="M256.484,311.131l-.062-.479.661-.039" transform="translate(-255.7 -309.456)" fill="none" stroke="#52870e" stroke-miterlimit="10" stroke-width="0.5"/>
          <path id="Path_159" data-name="Path 159" d="M253.762,308.366l.127-.637.68-.048" transform="translate(-253.517 -307.05)" fill="none" stroke="#52870e" stroke-miterlimit="10" stroke-width="0.5"/>
          <path id="Path_160" data-name="Path 160" d="M252.4,305.869l.177-.4h.406" transform="translate(-252.398 -305.237)" fill="none" stroke="#52870e" stroke-miterlimit="10" stroke-width="0.5"/>
        </g>
        <g id="Group_150" data-name="Group 150" transform="translate(1.27 4.618)">
          <path id="Path_161" data-name="Path 161" d="M253.818,287.964a1.784,1.784,0,0,1-.877-2.413S254.578,285.879,253.818,287.964Z" transform="translate(-252.801 -285.551)" fill="#82c241"/>
          <path id="Path_162" data-name="Path 162" d="M252.94,285.551l.027.006a5.808,5.808,0,0,0,.806,2.388A1.793,1.793,0,0,1,252.94,285.551Z" transform="translate(-252.801 -285.551)" fill="#82c241" opacity="0.7" style="mix-blend-mode: multiply;isolation: isolate"/>
          <path id="Path_163" data-name="Path 163" d="M254.455,287.964a5.244,5.244,0,0,1-.877-2.413" transform="translate(-253.439 -285.551)" fill="none" stroke="#52870e" stroke-miterlimit="10" stroke-width="0.5"/>
          <path id="Path_164" data-name="Path 164" d="M256.407,296.574l.081-.265.422.039" transform="translate(-255.76 -294.38)" fill="none" stroke="#52870e" stroke-miterlimit="10" stroke-width="0.5"/>
          <path id="Path_165" data-name="Path 165" d="M253.834,292.438l.192-.493.839.207" transform="translate(-253.648 -290.798)" fill="none" stroke="#52870e" stroke-miterlimit="10" stroke-width="0.5"/>
          <path id="Path_166" data-name="Path 166" d="M252.8,288.262l.184-.328.83.2" transform="translate(-252.8 -287.507)" fill="none" stroke="#52870e" stroke-miterlimit="10" stroke-width="0.5"/>
        </g>
        <g id="Group_151" data-name="Group 151" transform="translate(0 6.503)">
          <path id="Path_167" data-name="Path 167" d="M246.85,296.066a1.494,1.494,0,0,1-1.093,1.924A1.606,1.606,0,0,1,246.85,296.066Z" transform="translate(-245.72 -296.066)" fill="#82c241"/>
          <path id="Path_168" data-name="Path 168" d="M245.958,297.988a3.749,3.749,0,0,0,.779-1.126c.166-.408.251-.658.293-.79l.016-.005A1.494,1.494,0,0,1,245.958,297.988Z" transform="translate(-245.915 -296.066)" fill="#82c241" opacity="0.7" style="mix-blend-mode: multiply;isolation: isolate"/>
          <path id="Path_169" data-name="Path 169" d="M245.924,297.99a4.674,4.674,0,0,0,1.093-1.924" transform="translate(-245.887 -296.066)" fill="none" stroke="#52870e" stroke-miterlimit="10" stroke-width="0.5"/>
          <path id="Path_170" data-name="Path 170" d="M246.285,303.7l-.035-.388-.531.044" transform="translate(-245.719 -302.014)" fill="none" stroke="#52870e" stroke-miterlimit="10" stroke-width="0.5"/>
          <path id="Path_171" data-name="Path 171" d="M247.182,301.008l-.115-.5-.707.089" transform="translate(-246.245 -299.708)" fill="none" stroke="#52870e" stroke-miterlimit="10" stroke-width="0.5"/>
          <path id="Path_172" data-name="Path 172" d="M249.047,298.2l-.148-.413-.562.051" transform="translate(-247.868 -297.481)" fill="none" stroke="#52870e" stroke-miterlimit="10" stroke-width="0.5"/>
        </g>
        <g id="Group_152" data-name="Group 152" transform="translate(0 3.403)">
          <path id="Path_173" data-name="Path 173" d="M247.449,278.829a1.751,1.751,0,0,1-1.727,1.669S245.648,278.431,247.449,278.829Z" transform="translate(-245.722 -278.778)" fill="#82c241"/>
          <path id="Path_174" data-name="Path 174" d="M247.449,279.055a1.751,1.751,0,0,1-1.727,1.669s0-.008,0-.022a5.432,5.432,0,0,1,.932-1.172,3.837,3.837,0,0,1,.786-.476Z" transform="translate(-245.722 -279.004)" fill="#82c241" opacity="0.7" style="mix-blend-mode: multiply;isolation: isolate"/>
          <path id="Path_175" data-name="Path 175" d="M245.724,280.731a3.664,3.664,0,0,1,1.727-1.669" transform="translate(-245.724 -279.011)" fill="none" stroke="#52870e" stroke-miterlimit="10" stroke-width="0.5"/>
          <path id="Path_176" data-name="Path 176" d="M246.494,285.209l.039-.639-.368.018" transform="translate(-246.086 -283.531)" fill="none" stroke="#52870e" stroke-miterlimit="10" stroke-width="0.5"/>
          <path id="Path_177" data-name="Path 177" d="M247.927,282.822l-.07-.88-.585-.025" transform="translate(-246.994 -281.354)" fill="none" stroke="#52870e" stroke-miterlimit="10" stroke-width="0.5"/>
          <path id="Path_178" data-name="Path 178" d="M250.884,280.308v-.769l-.587-.1" transform="translate(-249.475 -279.32)" fill="none" stroke="#52870e" stroke-miterlimit="10" stroke-width="0.5"/>
        </g>
        <g id="Group_153" data-name="Group 153" transform="translate(1.775 2.274)">
          <path id="Path_179" data-name="Path 179" d="M257.438,274.745s-1.9.194-1.817-2.262C255.62,272.483,257.561,272.351,257.438,274.745Z" transform="translate(-255.618 -272.482)" fill="#82c241"/>
          <path id="Path_180" data-name="Path 180" d="M255.62,272.5a4.744,4.744,0,0,1,1.8,2.26C257.217,274.778,255.545,274.811,255.62,272.5Z" transform="translate(-255.617 -272.501)" fill="#82c241" opacity="0.7" style="mix-blend-mode: multiply;isolation: isolate"/>
          <path id="Path_181" data-name="Path 181" d="M257.449,274.751a4.9,4.9,0,0,0-1.817-2.262" transform="translate(-255.629 -272.488)" fill="none" stroke="#52870e" stroke-miterlimit="10" stroke-width="0.5"/>
          <path id="Path_182" data-name="Path 182" d="M262.918,280.661v-.915l.449.08" transform="translate(-261.608 -278.444)" fill="none" stroke="#52870e" stroke-miterlimit="10" stroke-width="0.5"/>
          <path id="Path_183" data-name="Path 183" d="M258.907,277.586l.252-1.08.668.039" transform="translate(-258.317 -275.784)" fill="none" stroke="#52870e" stroke-miterlimit="10" stroke-width="0.5"/>
          <path id="Path_184" data-name="Path 184" d="M256.364,274.583l.182-.8h.639" transform="translate(-256.23 -273.547)" fill="none" stroke="#52870e" stroke-miterlimit="10" stroke-width="0.5"/>
        </g>
      </g>
      <g id="Group_165" data-name="Group 165" transform="translate(0 0)">
        <g id="Group_156" data-name="Group 156" transform="translate(4.659 5.344)">
          <path id="Path_185" data-name="Path 185" d="M255.442,255.666a3.057,3.057,0,0,0,.711,2.4c.952,1.065,1.824.657,1.711-.175A2.846,2.846,0,0,0,255.442,255.666Z" transform="translate(-255.415 -255.666)" fill="#f7f08c"/>
          <path id="Path_186" data-name="Path 186" d="M257.832,258.512s-.42-2.389-2.266-2.846" transform="translate(-255.539 -255.666)" fill="none" stroke="#f7d534" stroke-miterlimit="10" stroke-width="0.5"/>
          <path id="Path_187" data-name="Path 187" d="M255.473,256.439a4.3,4.3,0,0,0,1.915,2.892" transform="translate(-255.463 -256.3)" fill="none" stroke="#f7d534" stroke-miterlimit="10" stroke-width="0.5"/>
          <path id="Path_188" data-name="Path 188" d="M258.16,259a5.99,5.99,0,0,0-2.072-2.845" transform="translate(-255.967 -256.071)" fill="none" stroke="#f7d534" stroke-miterlimit="10" stroke-width="0.5"/>
          <path id="Path_189" data-name="Path 189" d="M258.093,259.827a9.976,9.976,0,0,1-1.936-2.743" transform="translate(-256.024 -256.83)" fill="none" stroke="#f7d534" stroke-miterlimit="10" stroke-width="0.5"/>
          <g id="Group_155" data-name="Group 155" transform="translate(0 0.033)" opacity="0.6" style="mix-blend-mode: multiply;isolation: isolate">
            <path id="Path_190" data-name="Path 190" d="M257.865,258.036a2.866,2.866,0,0,0-2.194-2.188,3.767,3.767,0,0,1,1.4,1.04c.66.886.585,1.555.344,1.69-.415.233-.713-.017-1.332-.745a4.327,4.327,0,0,1-.652-1.923,3.045,3.045,0,0,0,.723,2.3C257.1,259.276,257.977,258.868,257.865,258.036Z" transform="translate(-255.415 -255.848)" fill="#f7f08c"/>
          </g>
          <path id="Path_191" data-name="Path 191" d="M257.194,257.666a3.863,3.863,0,0,0,.686,1.577c.5.555,1.178.551.578-.275A6.251,6.251,0,0,0,257.194,257.666Z" transform="translate(-256.875 -257.307)" fill="#fff" opacity="0.6" style="mix-blend-mode: overlay;isolation: isolate"/>
          <path id="Path_192" data-name="Path 192" d="M255.831,255.852s.965.807.694,1C256.277,257.022,255.831,255.852,255.831,255.852Z" transform="translate(-255.756 -255.819)" fill="#cf8c05"/>
        </g>
        <g id="Group_157" data-name="Group 157" transform="translate(4.653 0.702)">
          <path id="Path_193" data-name="Path 193" d="M258.226,229.8c.372.192.291,2-1.129,3.427-1.217,1.225-1.713,1.262-1.713,1.262a12.154,12.154,0,0,1,.8-2.393C256.754,230.853,257.843,229.6,258.226,229.8Z" transform="translate(-255.384 -229.781)" fill="#f7f08c"/>
          <path id="Path_194" data-name="Path 194" d="M261.034,230.77a5.151,5.151,0,0,1-2.219,4.1" transform="translate(-258.2 -230.593)" fill="none" stroke="#f7d534" stroke-miterlimit="10" stroke-width="0.5"/>
          <path id="Path_195" data-name="Path 195" d="M259.313,230.54a10.5,10.5,0,0,0-2.353,4.281" transform="translate(-256.677 -230.404)" fill="none" stroke="#f7d534" stroke-miterlimit="10" stroke-width="0.5"/>
          <path id="Path_196" data-name="Path 196" d="M261.023,231.849s-.073,1.473-1.991,3.743" transform="translate(-258.378 -231.478)" fill="none" stroke="#f7d534" stroke-miterlimit="10" stroke-width="0.5"/>
          <path id="Path_197" data-name="Path 197" d="M260.449,233.239a28.265,28.265,0,0,0-1.811,3.4" transform="translate(-258.055 -232.619)" fill="none" stroke="#f7d534" stroke-miterlimit="10" stroke-width="0.5"/>
          <path id="Path_198" data-name="Path 198" d="M258.226,229.8c-.383-.2-1.472,1.051-2.042,2.3a12.154,12.154,0,0,0-.8,2.393s.5-.037,1.713-1.262C258.516,231.8,258.6,229.994,258.226,229.8Zm-2.361,4.086a10.332,10.332,0,0,1,1.02-2.624c.641-1.008,1.08-1.384,1.246-1.234s.076.912-.357,1.876A6.631,6.631,0,0,1,255.864,233.887Z" transform="translate(-255.384 -229.781)" fill="#f7f08c" opacity="0.6" style="mix-blend-mode: multiply;isolation: isolate"/>
          <path id="Path_199" data-name="Path 199" d="M259.4,237.3a12.139,12.139,0,0,1,.839-1.907c.461-.808,1.149-1.5.844-.523A9.071,9.071,0,0,1,259.4,237.3Z" transform="translate(-258.677 -233.568)" fill="#fff" opacity="0.6" style="mix-blend-mode: overlay;isolation: isolate"/>
          <path id="Path_200" data-name="Path 200" d="M256.419,249.371s.566-1.483.823-1.317C257.543,248.249,256.419,249.371,256.419,249.371Z" transform="translate(-256.233 -244.767)" fill="#cf8c05"/>
        </g>
        <g id="Group_159" data-name="Group 159" transform="translate(2.254 5.344)">
          <path id="Path_201" data-name="Path 201" d="M244.437,255.666a3.057,3.057,0,0,1-.711,2.4c-.951,1.065-1.824.657-1.711-.175A2.846,2.846,0,0,1,244.437,255.666Z" transform="translate(-242.005 -255.666)" fill="#f7f08c"/>
          <path id="Path_202" data-name="Path 202" d="M242.933,258.512s.42-2.389,2.266-2.846" transform="translate(-242.767 -255.666)" fill="none" stroke="#f7d534" stroke-miterlimit="10" stroke-width="0.5"/>
          <path id="Path_203" data-name="Path 203" d="M246.9,256.439a4.3,4.3,0,0,1-1.915,2.892" transform="translate(-244.451 -256.3)" fill="none" stroke="#f7d534" stroke-miterlimit="10" stroke-width="0.5"/>
          <path id="Path_204" data-name="Path 204" d="M243.492,259a5.991,5.991,0,0,1,2.072-2.845" transform="translate(-243.225 -256.071)" fill="none" stroke="#f7d534" stroke-miterlimit="10" stroke-width="0.5"/>
          <path id="Path_205" data-name="Path 205" d="M244.185,259.827a9.977,9.977,0,0,0,1.935-2.743" transform="translate(-243.794 -256.83)" fill="none" stroke="#f7d534" stroke-miterlimit="10" stroke-width="0.5"/>
          <g id="Group_158" data-name="Group 158" transform="translate(0 0.033)" opacity="0.6" style="mix-blend-mode: multiply;isolation: isolate">
            <path id="Path_206" data-name="Path 206" d="M242.015,258.036a2.866,2.866,0,0,1,2.194-2.188,3.767,3.767,0,0,0-1.4,1.04c-.66.886-.585,1.555-.344,1.69.415.233.713-.017,1.332-.745a4.326,4.326,0,0,0,.652-1.923,3.044,3.044,0,0,1-.723,2.3C242.775,259.276,241.9,258.868,242.015,258.036Z" transform="translate(-242.005 -255.848)" fill="#f7f08c"/>
          </g>
          <path id="Path_207" data-name="Path 207" d="M247.083,257.666a3.864,3.864,0,0,1-.686,1.577c-.5.555-1.178.551-.578-.275A6.251,6.251,0,0,1,247.083,257.666Z" transform="translate(-244.943 -257.307)" fill="#fff" opacity="0.6" style="mix-blend-mode: overlay;isolation: isolate"/>
          <path id="Path_208" data-name="Path 208" d="M251.91,255.852s-.964.807-.694,1C251.464,257.022,251.91,255.852,251.91,255.852Z" transform="translate(-249.525 -255.819)" fill="#cf8c05"/>
        </g>
        <g id="Group_160" data-name="Group 160" transform="translate(1.581 0.775)">
          <path id="Path_209" data-name="Path 209" d="M238.427,230.207c-.366.2-.238,2,1.219,3.4,1.249,1.193,1.745,1.217,1.745,1.217a12.158,12.158,0,0,0-.862-2.372C239.926,231.22,238.8,230,238.427,230.207Z" transform="translate(-238.253 -230.184)" fill="#f7f08c"/>
          <path id="Path_210" data-name="Path 210" d="M239.284,231.185a5.154,5.154,0,0,0,2.327,4.046" transform="translate(-239.099 -231.005)" fill="none" stroke="#f7d534" stroke-miterlimit="10" stroke-width="0.5"/>
          <path id="Path_211" data-name="Path 211" d="M240.389,230.927a10.51,10.51,0,0,1,2.465,4.219" transform="translate(-240.006 -230.794)" fill="none" stroke="#f7d534" stroke-miterlimit="10" stroke-width="0.5"/>
          <path id="Path_212" data-name="Path 212" d="M240.366,232.236s.112,1.471,2.089,3.691" transform="translate(-239.987 -231.868)" fill="none" stroke="#f7d534" stroke-miterlimit="10" stroke-width="0.5"/>
          <path id="Path_213" data-name="Path 213" d="M241.8,233.59a28.279,28.279,0,0,1,1.9,3.352" transform="translate(-241.166 -232.979)" fill="none" stroke="#f7d534" stroke-miterlimit="10" stroke-width="0.5"/>
          <path id="Path_214" data-name="Path 214" d="M239.645,233.6c1.249,1.193,1.745,1.217,1.745,1.217a12.158,12.158,0,0,0-.862-2.372c-.6-1.229-1.724-2.45-2.1-2.242S238.188,232.211,239.645,233.6Zm-.713-1.306c-.458-.953-.569-1.712-.406-1.866s.611.211,1.278,1.2a10.333,10.333,0,0,1,1.089,2.6A6.64,6.64,0,0,1,238.933,232.3Z" transform="translate(-238.253 -230.184)" fill="#f7f08c" opacity="0.6" style="mix-blend-mode: multiply;isolation: isolate"/>
          <path id="Path_215" data-name="Path 215" d="M243.215,237.611a12.128,12.128,0,0,0-.888-1.885c-.482-.8-1.188-1.466-.858-.5A9.079,9.079,0,0,0,243.215,237.611Z" transform="translate(-240.822 -233.93)" fill="#fff" opacity="0.6" style="mix-blend-mode: overlay;isolation: isolate"/>
          <path id="Path_216" data-name="Path 216" d="M250.556,249.492s-.6-1.468-.857-1.3C249.4,248.4,250.556,249.492,250.556,249.492Z" transform="translate(-247.607 -244.955)" fill="#cf8c05"/>
        </g>
        <g id="Group_161" data-name="Group 161" transform="translate(4.654 4.475)">
          <path id="Path_217" data-name="Path 217" d="M255.392,251.727a2.39,2.39,0,0,1,1.921-.908,4.161,4.161,0,0,1,2.771,1.023c.18.345-.619.65-1.893.576A10.684,10.684,0,0,1,255.392,251.727Z" transform="translate(-255.392 -250.818)" fill="#f9ea62"/>
          <path id="Path_218" data-name="Path 218" d="M260.082,253.343s-2.93-1.365-4.643-.1" transform="translate(-255.431 -252.368)" fill="none" stroke="#f7d534" stroke-miterlimit="10" stroke-width="0.5"/>
          <path id="Path_219" data-name="Path 219" d="M259.979,256.3a12.221,12.221,0,0,1-4.587-.418" transform="translate(-255.392 -254.977)" fill="none" stroke="#f7d534" stroke-miterlimit="10" stroke-width="0.5"/>
          <path id="Path_220" data-name="Path 220" d="M260.1,255.449a10.05,10.05,0,0,0-4.7-.282" transform="translate(-255.392 -254.259)" fill="none" stroke="#f7d534" stroke-miterlimit="10" stroke-width="0.5"/>
          <path id="Path_221" data-name="Path 221" d="M257.313,250.819a2.39,2.39,0,0,0-1.921.908,10.684,10.684,0,0,0,2.8.691c1.274.074,2.073-.231,1.893-.576A4.161,4.161,0,0,0,257.313,250.819Zm2.574,1.134c-.249.656-4.337-.257-4.337-.257C256.019,250.729,260.145,251.272,259.887,251.952Z" transform="translate(-255.392 -250.819)" fill="#f9ea62" style="mix-blend-mode: multiply;isolation: isolate"/>
          <path id="Path_222" data-name="Path 222" d="M259.418,254.217s1.513.237,2.239.282,1.6-.079.506-.469A5.074,5.074,0,0,0,259.418,254.217Z" transform="translate(-258.696 -253.343)" fill="#fff" opacity="0.6" style="mix-blend-mode: overlay;isolation: isolate"/>
          <path id="Path_223" data-name="Path 223" d="M255.666,254.548s1.378-.489,1.447-.178S255.666,254.548,255.666,254.548Z" transform="translate(-255.617 -253.648)" fill="#cf8c05"/>
        </g>
        <g id="Group_162" data-name="Group 162" transform="translate(0 4.475)">
          <path id="Path_224" data-name="Path 224" d="M234.152,251.727a2.39,2.39,0,0,0-1.921-.908,4.161,4.161,0,0,0-2.771,1.023c-.18.345.619.65,1.893.576A10.684,10.684,0,0,0,234.152,251.727Z" transform="translate(-229.434 -250.818)" fill="#f9ea62"/>
          <path id="Path_225" data-name="Path 225" d="M229.8,253.343s2.93-1.365,4.643-.1" transform="translate(-229.737 -252.368)" fill="none" stroke="#f7d534" stroke-miterlimit="10" stroke-width="0.5"/>
          <path id="Path_226" data-name="Path 226" d="M230.161,256.3a12.221,12.221,0,0,0,4.587-.418" transform="translate(-230.031 -254.977)" fill="none" stroke="#f7d534" stroke-miterlimit="10" stroke-width="0.5"/>
          <path id="Path_227" data-name="Path 227" d="M229.515,255.449a10.049,10.049,0,0,1,4.7-.282" transform="translate(-229.501 -254.259)" fill="none" stroke="#f7d534" stroke-miterlimit="10" stroke-width="0.5"/>
          <path id="Path_228" data-name="Path 228" d="M229.46,251.842c-.18.345.619.65,1.893.576a10.684,10.684,0,0,0,2.8-.691,2.39,2.39,0,0,0-1.921-.908A4.161,4.161,0,0,0,229.46,251.842Zm4.534-.146s-4.087.913-4.336.257C229.4,251.272,233.525,250.729,233.993,251.7Z" transform="translate(-229.434 -250.818)" fill="#f9ea62" style="mix-blend-mode: multiply;isolation: isolate"/>
          <path id="Path_229" data-name="Path 229" d="M236.783,254.217s-1.513.237-2.239.282-1.6-.079-.506-.469A5.074,5.074,0,0,1,236.783,254.217Z" transform="translate(-232.788 -253.343)" fill="#fff" opacity="0.6" style="mix-blend-mode: overlay;isolation: isolate"/>
          <path id="Path_230" data-name="Path 230" d="M248.837,254.548s-1.378-.489-1.447-.178S248.837,254.548,248.837,254.548Z" transform="translate(-244.168 -253.648)" fill="#cf8c05"/>
        </g>
        <g id="Group_164" data-name="Group 164" transform="translate(3.749)">
          <path id="Path_231" data-name="Path 231" d="M251.256,225.864c-.928-.015-1.481,2.884.006,5.374a7,7,0,0,0,.784-2.355C252.408,227.249,252.032,225.877,251.256,225.864Z" transform="translate(-250.342 -225.864)" fill="#f9ea62"/>
          <g id="Group_163" data-name="Group 163" transform="translate(0.265 0.006)">
            <path id="Path_232" data-name="Path 232" d="M254.39,225.9a20.382,20.382,0,0,0,.076,5.368" transform="translate(-253.811 -225.896)" fill="none" stroke="#f7d534" stroke-miterlimit="10" stroke-width="0.5"/>
            <path id="Path_233" data-name="Path 233" d="M251.884,228.411a14.707,14.707,0,0,0,.19,4.124" transform="translate(-251.82 -227.96)" fill="none" stroke="#f7d534" stroke-miterlimit="10" stroke-width="0.5"/>
            <path id="Path_234" data-name="Path 234" d="M257.338,227.38a9.02,9.02,0,0,1-.221,4.475" transform="translate(-256.167 -227.114)" fill="none" stroke="#f7d534" stroke-miterlimit="10" stroke-width="0.5"/>
            <path id="Path_235" data-name="Path 235" d="M256.2,226.022a36.215,36.215,0,0,1-.047,5.064" transform="translate(-255.379 -225.999)" fill="none" stroke="#f7d534" stroke-miterlimit="10" stroke-width="0.5"/>
          </g>
          <path id="Path_236" data-name="Path 236" d="M251.256,225.864c-.928-.015-1.481,2.884.006,5.374a7,7,0,0,0,.784-2.355C252.408,227.249,252.032,225.877,251.256,225.864Zm.644,2.752a14.4,14.4,0,0,1-.668,2.374,6.268,6.268,0,0,1-.521-2.033c-.1-1.179.17-2.647.545-2.715C251.98,226.112,252.062,227.572,251.9,228.616Z" transform="translate(-250.342 -225.864)" fill="#f9ea62" style="mix-blend-mode: multiply;isolation: isolate"/>
          <path id="Path_237" data-name="Path 237" d="M254.109,235.25a12.524,12.524,0,0,1-.259-2.742c.108-.888.6-1.1.653-.246A14.88,14.88,0,0,1,254.109,235.25Z" transform="translate(-253.205 -230.669)" fill="#fff" opacity="0.6" style="mix-blend-mode: overlay;isolation: isolate"/>
          <path id="Path_238" data-name="Path 238" d="M254.492,246.2s-.531-2.1-.065-2.105C254.841,244.092,254.626,245.448,254.492,246.2Z" transform="translate(-253.537 -240.824)" fill="#cf8c05"/>
        </g>
      </g>
    </g>
  </g>
</svg>
