<svg xmlns="http://www.w3.org/2000/svg" width="118.058" height="33.019" viewBox="0 0 118.058 33.019">
  <g id="fashion" transform="translate(-1843 -477)">
    <g id="Group_751" data-name="Group 751">
      <path id="Path_547" data-name="Path 547" d="M245.314,570.794a9.724,9.724,0,0,1-3.473-7.055c.809,2.721,3.573,6.6,11,11.676,0,0-8.158-11.42-5.4-17.822,0,0-1.523-.785-4.564,1.167a.116.116,0,0,0,.005-.016s-5.073,3.4-4.226,7.111c.166.733.05,1.621-1.715,2.47a1.09,1.09,0,0,0-.816,1.338,2.078,2.078,0,0,0,.514.947.592.592,0,0,1,.052.036c.438.418-.324.3-.564.375-.409.131-.419.941.23,1.653,0,0-1.046,1.046-.46,1.966,0,0,.146.167.754.083,0,0-.468,3.3,2.07,3.222,1.494-.049,4.749-1.276,5.94.649,0,0,4.039,4.957-.857,11.861a10.275,10.275,0,0,0,6.233-8.495S251.841,576.859,245.314,570.794Z" transform="translate(1657.636 -80.437)" fill="#b66250"/>
    </g>
    <g id="Group_342" data-name="Group 342" transform="translate(1843 487.182)">
      <path id="Path_540" data-name="Path 540" d="M67.718,677.471v-8.437h-.495l-.323-.892h.818v-3.066h3.175v.911H68.649v2.156h2.13l.323.892H68.649v8.437Z" transform="translate(-66.9 -664.871)"/>
      <path id="Path_541" data-name="Path 541" d="M131.954,677.029v-8.456h-2.129v8.456h-.932v-8.456H128.4l-.3-.892h.8a6.758,6.758,0,0,1,.228-2.156,1.7,1.7,0,0,1,1.768-1.06,1.792,1.792,0,0,1,1.579.707,2.915,2.915,0,0,1,.418,1.691v10.166Zm0-10.481a1.363,1.363,0,0,0-.247-.846.9.9,0,0,0-.761-.325,1.059,1.059,0,0,0-.827.325,1.237,1.237,0,0,0-.294.865v1.115h2.129Z" transform="translate(-109.465 -664.429)"/>
      <path id="Path_542" data-name="Path 542" d="M191.4,676.56h.551a4.716,4.716,0,0,0,1.864-.279,1.552,1.552,0,0,0,.893-1.561,4.979,4.979,0,0,0-.732-2.285q-.732-1.339-1.436-2.583a5.608,5.608,0,0,1-.779-2.435,2.084,2.084,0,0,1,.761-1.747,3.118,3.118,0,0,1,1.977-.594h.684v.892a5.949,5.949,0,0,0-1.635.148,1.211,1.211,0,0,0-.856,1.264,5.268,5.268,0,0,0,.761,2.36q.7,1.226,1.436,2.565a5.113,5.113,0,0,1,.732,2.4,2.466,2.466,0,0,1-.9,2.053,3.606,3.606,0,0,1-2.31.715H191.4Z" transform="translate(-153.518 -664.871)"/>
      <path id="Path_543" data-name="Path 543" d="M256.332,677.471v-8.418h-2.319v8.418h-.932v-8.418h-.456l-.342-.893h.8v-3.085h.932v3.085h2.319v-3.085h.932v12.4Z" transform="translate(-195.838 -664.871)"/>
      <path id="Path_544" data-name="Path 544" d="M321.907,677.471v-12.4h.932v12.4Z" transform="translate(-244.549 -664.871)"/>
      <path id="Path_545" data-name="Path 545" d="M375.242,670.909a6.037,6.037,0,0,1-1.9,4.478,6.65,6.65,0,0,1-9.193.028,5.931,5.931,0,0,1-1.911-4.451,6.111,6.111,0,0,1,1.92-4.572,6.522,6.522,0,0,1,4.715-1.858,6.109,6.109,0,0,1,4.516,1.877A6.175,6.175,0,0,1,375.242,670.909Zm-12.093-.018a5.2,5.2,0,0,0,1.616,3.866,5.444,5.444,0,0,0,3.955,1.579,5.511,5.511,0,0,0,3.945-1.57,5.061,5.061,0,0,0,1.645-3.8,5.238,5.238,0,0,0-1.635-3.959,5.689,5.689,0,0,0-4.088-1.561,5.21,5.21,0,0,0-3.851,1.608A5.271,5.271,0,0,0,363.15,670.891Z" transform="translate(-270.089 -664.479)"/>
      <path id="Path_546" data-name="Path 546" d="M443.488,676.933v-9.441l-2.681-1.561v11h-.932v-12.6l3.612,2.118v-1.914h.932v12.4Z" transform="translate(-326.362 -664.333)"/>
    </g>
  </g>
</svg>
