<svg xmlns="http://www.w3.org/2000/svg" xmlns:xlink="http://www.w3.org/1999/xlink" width="753.444" height="283.058" viewBox="0 0 753.444 283.058">
  <defs>
    <linearGradient id="linear-gradient" y1="0.5" x2="1" y2="0.5" gradientUnits="objectBoundingBox">
      <stop offset="0" stop-color="#308002" stop-opacity="0.451"/>
      <stop offset="0.005" stop-color="#4cd200"/>
      <stop offset="1" stop-color="#5cac1f"/>
    </linearGradient>
    <linearGradient id="linear-gradient-2" y1="0.5" x2="1" y2="0.5" gradientUnits="objectBoundingBox">
      <stop offset="0" stop-color="#3c6127"/>
      <stop offset="0.005" stop-color="#4cd100"/>
      <stop offset="1" stop-color="#8ef243"/>
    </linearGradient>
    <linearGradient id="linear-gradient-3" y1="0.5" x2="1" y2="0.5" gradientUnits="objectBoundingBox">
      <stop offset="0" stop-color="#3c6127"/>
      <stop offset="0.005" stop-color="#8afb4a"/>
      <stop offset="1" stop-color="#50b900"/>
    </linearGradient>
    <linearGradient id="linear-gradient-4" y1="0.5" x2="1" y2="0.5" gradientUnits="objectBoundingBox">
      <stop offset="0" stop-color="#3c6127"/>
      <stop offset="0.005" stop-color="#7ddf45"/>
      <stop offset="1" stop-color="#4fa110"/>
    </linearGradient>
    <linearGradient id="linear-gradient-5" y1="0.5" x2="1" y2="0.5" gradientUnits="objectBoundingBox">
      <stop offset="0" stop-color="#ff9340"/>
      <stop offset="1" stop-color="#ffce45"/>
    </linearGradient>
    <linearGradient id="linear-gradient-6" y1="0.5" x2="1" y2="0.5" gradientUnits="objectBoundingBox">
      <stop offset="0" stop-color="#c97332"/>
      <stop offset="1" stop-color="#ffce45"/>
    </linearGradient>
  </defs>
  <g id="_1stSection" data-name="1stSection" transform="translate(-276.221 -473.486)">
    <g id="Group_777" data-name="Group 777">
      <path id="Path_595" data-name="Path 595" d="M195.712,604.2h599s155.23-20.2,126,9,26.75-3.943-43,37.869c-41.222,24.709-117.168,23.345-207,22.131-61.958-.838-140.556,1.425-178,0-91.551-3.484-311.536,3.417-314.06-22.131S165.277,604.788,195.712,604.2Z" transform="translate(105.288 82.804)" fill="#f1f2f3"/>
    </g>
    <g id="Group_393" data-name="Group 393" transform="translate(419.881 509.987)">
      <path id="Path_596" data-name="Path 596" d="M390.942,357.764c5.987-2.864,11.945,16.2,11.945,16.2,10.176,13.445,24.4-4.442,23,15.658-2.432,35.171,40.483,11.06,20.685,47.78s17.482,20.762,5.178,50.371,3.642,64.921-14.869,50.411c0,0-16.3-35.748-33.113-46.808s10.07-24.183,4.812-39.206c-7.641-21.819-26.047-20.962-12.776-44.409S370.591,367.5,390.942,357.764Z" transform="translate(-384.875 -357.471)" fill="url(#linear-gradient)"/>
      <g id="Group_389" data-name="Group 389" transform="translate(24.098 37.286)">
        <path id="Path_597" data-name="Path 597" d="M452.406,539.669c-8.026-5.644-17.417-44.974-17.978-68.4-.288-12-3.834-17-6.964-21.41-2.991-4.216-5.574-7.858-4.069-16.219,2.875-15.979-4.686-22.875-4.763-22.941l.876-1c.336.3,8.21,7.409,5.193,24.176-1.406,7.813.911,11.079,3.846,15.216,3.079,4.34,6.912,9.739,7.209,22.144.6,25.14,10.2,62.275,17.412,67.346Z" transform="translate(-418.632 -409.702)" fill="#fff"/>
      </g>
      <g id="Group_390" data-name="Group 390" transform="translate(50.933 91.388)">
        <path id="Path_598" data-name="Path 598" d="M466.163,564.268a17,17,0,0,1-3.394-.368c-3.092-.624-5.12-2.257-6.026-4.849-2.164-6.189,2.849-16.238,6.917-21.082a30.938,30.938,0,0,0,6.15-19.939c-.123-1.932-.323-3.721-.5-5.3-.512-4.565-.881-7.863,1.079-10.066,1.728-1.94,5.062-2.782,11.153-2.81,10.68-.051,14.9-4.472,18.3-8.025a19.365,19.365,0,0,1,4.455-3.837h0c5.322-2.906,10.961-3.334,13.407-1.016,1.16,1.1,2.141,3.256.218,7.278a28.11,28.11,0,0,1-5.87,7.871c-2.466,2.515-4.093,4.178-3.247,7.488.2.778.429,1.565.659,2.35,1.646,5.632,3.512,12.015-6.126,16.347-2.045.918-3.908,1.65-5.552,2.294-6.728,2.642-10.789,4.235-15.373,13.911-.887,1.873-1.671,3.649-2.43,5.366C476.367,558.072,473.632,564.267,466.163,564.268Zm38.767-75.112a18.135,18.135,0,0,0-4.131,3.589c-3.567,3.735-8.006,8.382-19.249,8.435-5.6.026-8.737.757-10.168,2.366-1.568,1.762-1.226,4.813-.752,9.036.178,1.594.381,3.4.5,5.365a31.7,31.7,0,0,1-6.457,20.874c-4.028,4.794-8.589,14.338-6.683,19.791.741,2.12,2.436,3.462,5.039,3.988,9.076,1.834,11.583-3.846,15.733-13.255.762-1.726,1.549-3.51,2.444-5.4,4.809-10.153,9.3-11.914,16.087-14.58,1.631-.639,3.478-1.364,5.5-2.269,8.582-3.859,7.034-9.156,5.394-14.762-.234-.8-.468-1.6-.67-2.4-1.034-4.036,1-6.114,3.582-8.746a26.589,26.589,0,0,0,5.621-7.514c.872-1.822,1.591-4.3.066-5.742-2-1.9-7.1-1.378-11.856,1.216Z" transform="translate(-456.222 -485.487)" fill="url(#linear-gradient-2)"/>
      </g>
      <g id="Group_391" data-name="Group 391" transform="translate(56.298 101.987)">
        <path id="Path_599" data-name="Path 599" d="M465.064,576.177l-1.326-.07c.066-1.244,1.738-30.595,13.522-39.186,12.929-9.425,17.005-19.552,18.946-26.349,2.289-8.011,13.933-10.152,14.427-10.239l.23,1.306c-.113.021-11.32,2.085-13.379,9.3-2,6.987-6.183,17.394-19.443,27.059C466.762,546.216,465.079,575.879,465.064,576.177Z" transform="translate(-463.738 -500.334)" fill="url(#linear-gradient-3)"/>
      </g>
      <path id="Path_600" data-name="Path 600" d="M485.187,399.238c-8.376-2.872-6.636,13.271-10.174,25.216s-39.375,5.211-24.333,35.124-19.023,10-8.847,36.106.885,54.019,11.945,46.917,6.213-39.969,17.716-43.877,13.38-8.461,1.992-19.078,29.842-21.159,19.666-42.6S494.865,402.556,485.187,399.238Z" transform="translate(-400.619 -369.326)" fill="url(#linear-gradient-4)"/>
      <g id="Group_392" data-name="Group 392" transform="translate(53.086 67.356)">
        <path id="Path_601" data-name="Path 601" d="M464.442,556.489c-1.054-4.466-10.049-43.79-1.657-48.543,7.4-4.19,7.216-20.486,6.062-35.872-1.022-13.622,16.471-19.986,17.218-20.251l.443,1.249c-.173.063-17.283,6.295-16.336,18.9,1.184,15.8,1.311,32.571-6.733,37.126-6.374,3.609-.505,35.213,2.294,47.085Z" transform="translate(-459.239 -451.823)" fill="#fff"/>
      </g>
      <path id="Path_602" data-name="Path 602" d="M472.9,578.825,460.943,624.2H434.217l-11.959-45.372Z" transform="translate(-395.571 -420.805)" fill="url(#linear-gradient-5)"/>
      <path id="Path_603" data-name="Path 603" d="M472.9,578.825s-26.329,4.944-26.329,45.372H434.217l-11.959-45.372Z" transform="translate(-395.571 -420.805)" fill="url(#linear-gradient-6)"/>
    </g>
    <g id="Group_397" data-name="Group 397" transform="translate(276.221 514.013)">
      <path id="Path_604" data-name="Path 604" d="M248.585,639.294a34.29,34.29,0,0,0-5.256,6.157c-2.486,3.729-9.087,3.926-9.369,9.017s8.973,5.248,13.834,3.59,5.594-6.628,8.533-7.873,4.464-2.249,4.238-4.677a29.579,29.579,0,0,0-1.851-6.366,20.348,20.348,0,0,1-2.9.7A24.034,24.034,0,0,1,248.585,639.294Z" transform="translate(-198.033 -442.089)" fill="#eee"/>
      <path id="Path_605" data-name="Path 605" d="M287.334,440.185s-1.863,11.077-3.363,18.392h0a43.486,43.486,0,0,1-1.5,6.055c-.429.932-3.926,4.683-8.2,9.089-7.506,7.729-17.427,17.462-17.427,17.462l-3.876-7.361s8.81-10.328,14.784-17.219c2.763-3.19,4.921-5.643,5.315-6,1.249-1.119,2.7-12.125,4.736-21.194s6.12-14.081,6.12-14.081Z" transform="translate(-203.472 -380.913)" fill="#e55353"/>
      <path id="Path_606" data-name="Path 606" d="M274.267,490.264c-7.506,7.729-17.427,17.462-17.427,17.462l-3.876-7.361s8.81-10.328,14.784-17.219A12.521,12.521,0,0,1,274.267,490.264Z" transform="translate(-203.472 -397.455)" fill="#eea886"/>
      <rect id="Rectangle_203" data-name="Rectangle 203" width="2.958" height="71.45" transform="translate(30.749 128.25)" fill="#807066"/>
      <rect id="Rectangle_204" data-name="Rectangle 204" width="2.958" height="71.45" transform="translate(147.403 128.25)" fill="#807066"/>
      <rect id="Rectangle_205" data-name="Rectangle 205" width="143.549" height="5.127" transform="translate(19.668 124.373)" fill="#e6a16f"/>
      <g id="Group_394" data-name="Group 394" transform="translate(107.483 193.92)">
        <path id="Path_607" data-name="Path 607" d="M345.656,635s2.549,2.82,4.058,4.529,7.284,4.764,7.314,9.84c.034,5.5-4.26,5.023-8.082,4.82a10.555,10.555,0,0,1-8.533-5.957c-1.608-3.116-5.888-3.936-6.189-6.449s1.983-7.036,1.983-7.036Z" transform="translate(-334.197 -634.752)" fill="#eee"/>
      </g>
      <path id="Path_608" data-name="Path 608" d="M337.506,628.187l-.492,4.687s7.974,3.474,9.448.253l-.342-4.173Z" transform="translate(-227.521 -438.954)" fill="#5f8cc9"/>
      <path id="Path_609" data-name="Path 609" d="M254.882,634.6,254.449,638a16.712,16.712,0,0,0,10.129-.151l.108-3.017Z" transform="translate(-203.897 -440.79)" fill="#5f8cc9"/>
      <path id="Path_610" data-name="Path 610" d="M330.425,487.159c.276.986-51.041,0-51.041,0s14.195-10.333,15.116-13.093-3.615-19.323-4.205-24.712c-.475-4.311-1.66-23.6,1.183-26.55,2.97-3.08,13.669-6.309,13.669-6.309l15.6.579a24.581,24.581,0,0,1,4.415,1.393c1.839.854,12.362,4.6,14.072,9.859s-10.5,22.163-10.5,22.163-.024.758-.061,2h0c-.048,1.659-.117,4.183-.181,6.92-.082,3.544-.152,7.446-.152,10.3A101.774,101.774,0,0,0,330.425,487.159Z" transform="translate(-211.031 -378.385)" fill="#e55353"/>
      <path id="Path_611" data-name="Path 611" d="M315.946,514.416s6.979,10.251,7.078,17.25-2.585,26.406-2.783,30.25-3.812,35.885-3.812,35.885-2.793,2.594-11.172-.658c0,0-1.849-30.383-2.046-33.637s-.2-18.236-2.071-20.4-13.208-8.971-14.687-10.253-27.237,4.869-29.935,5.568c-6.99,1.813-3.8,13.974-2.259,19.426,2.587,9.121,4.848,42.06,4.848,42.06s-4.978,2.122-13.316.328c0,0-16.374-59.477-16.9-65.391s-.785-15.668,39.566-23.08Z" transform="translate(-196.553 -405.642)" fill="#2f4563"/>
      <path id="Path_612" data-name="Path 612" d="M317.1,368.938s-13.54-3.053-10.448,13.986S313,401.3,321.166,397.776s7.437-14.443,7.848-19.8S321.415,369.125,317.1,368.938Z" transform="translate(-218.701 -364.717)" fill="#eea886"/>
      <path id="Path_613" data-name="Path 613" d="M316.447,414.016s6,6.359,15.474.582c0,0-2.119-13.777-1.005-20.488s-12.364,10.4-12.364,10.4c.177.092.3.734.323,1.645a18.646,18.646,0,0,1-.142,2.73C318.454,411.114,317.76,413.468,316.447,414.016Z" transform="translate(-221.636 -371.534)" fill="#eea886"/>
      <path id="Path_614" data-name="Path 614" d="M331.588,384.925c.179-1.5,3.15-2.055,3.389.2s-1.35,6.209-2.477,5.82S331.342,387,331.588,384.925Z" transform="translate(-225.932 -368.976)" fill="#eea886"/>
      <path id="Path_615" data-name="Path 615" d="M328.039,385.115s-.351-5.367-2.31-5.534-2.264,1.993-2.264,1.993l-1.98.374s.627-4.707-1.331-5.528-12.686,2.591-14.258,1.211-.832-10.927,2.01-12.233,10.693-4.233,16.446-.341c0,0,4.482-.511,5.147,3.108S329.257,382.425,328.039,385.115Z" transform="translate(-218.385 -363.11)" fill="#3a3f47"/>
      <path id="Path_616" data-name="Path 616" d="M319.649,411.824c9.777-3.015,10.513-8.9,10.524-8.993-3.22,5.531-10.382,6.263-10.382,6.263A18.642,18.642,0,0,1,319.649,411.824Z" transform="translate(-222.552 -374.475)" fill="#a77860"/>
      <path id="Path_617" data-name="Path 617" d="M333.948,418.173s-7.161,14.253-18.727,13.332-1.972-15.246-1.446-15.378C314.353,415.982,325.637,413.169,333.948,418.173Z" transform="translate(-219.66 -378.017)" fill="#eea886"/>
      <path id="Path_618" data-name="Path 618" d="M271.16,512.7s35.441,4.369,56.912.723L287.045,508.3S286.8,509.346,271.16,512.7Z" transform="translate(-208.678 -404.652)" fill="#e55353"/>
      <path id="Path_619" data-name="Path 619" d="M307.233,506.039l-2.639,1.337s.6,4.195,2.045,5.465l2.963-.757S308.985,507.485,307.233,506.039Z" transform="translate(-218.245 -404.005)" fill="#eea886"/>
      <path id="Path_620" data-name="Path 620" d="M349.3,476.032c-.527.611-7.5,3.414-15.366,6.446h0c-10.751,4.143-22.881,8.061-22.881,8.061l-2.761-5.919s12.7-6.9,21.285-11.743c4.053-2.286,7.188-4.113,7.633-4.534,1.379-1.315,1.737-3.423.722-7.1s-3.352-20.57-3.616-22.541.658-7.228,5.587-7.491,7.439,1.128,7.439,1.128,1.238.515,2.156,12.476S350.55,474.588,349.3,476.032Z" transform="translate(-219.302 -382.586)" fill="#e55353"/>
      <path id="Path_621" data-name="Path 621" d="M347.218,461.134h0c-.048,1.659-.117,4.183-.181,6.92-4.81-11.792-2.032-21.2-1.984-21.361C344.532,449.893,347.18,460.977,347.218,461.134Z" transform="translate(-229.58 -387.025)" fill="#963737"/>
      <path id="Path_622" data-name="Path 622" d="M295.487,467.061h0a43.491,43.491,0,0,1-1.5,6.055c-1.643-7.953-.165-18.133-.165-18.133A102.331,102.331,0,0,0,295.487,467.061Z" transform="translate(-214.987 -389.397)" fill="#963737"/>
      <path id="Path_623" data-name="Path 623" d="M333.934,499.19h0c-10.751,4.143-23.272,8.186-23.272,8.186l-2.369-6.044s12.7-6.9,21.285-11.743C329.576,489.59,332.7,491.112,333.934,499.19Z" transform="translate(-219.302 -399.299)" fill="#eea886"/>
      <path id="Path_624" data-name="Path 624" d="M287.031,514.7l-50.371-.741,25.432,12.914Z" transform="translate(-198.807 -406.272)" fill="#979797"/>
      <path id="Path_625" data-name="Path 625" d="M271.5,527.172l24.939-9.66V515l-26.91,9.708Z" transform="translate(-208.21 -406.569)" fill="#e1e1e1"/>
      <g id="Group_395" data-name="Group 395" transform="translate(69.362 102.34)">
        <path id="Path_626" data-name="Path 626" d="M298.356,507.591s-3.147-.491-5.322-1c-1.684-.391-5.868.147-6.934,1.229s-4.455,8.6-5.1,9.064.328,1.521,1.455.988c0,0,1.034,3.293,3.585,2.06s4.283-3.924,5.619-4.4,9.116-2.866,9.116-2.866S300.361,506.789,298.356,507.591Z" transform="translate(-280.799 -506.468)" fill="#eea886"/>
      </g>
      <g id="Group_396" data-name="Group 396" transform="translate(69.59 103.202)">
        <path id="Path_627" data-name="Path 627" d="M286.959,507.675a21.934,21.934,0,0,0-2.549,1.411c-.528.435-2.667,2.036-3.185,2.414s.781,1.448,4.605-.208S286.959,507.675,286.959,507.675Z" transform="translate(-281.117 -507.675)" fill="#eea886"/>
      </g>
      <path id="Path_628" data-name="Path 628" d="M246.921,515.655l-14.982-40.909-48.3.789,14.279,37.7Z" transform="translate(-183.636 -395.051)" fill="#e1e1e1"/>
      <path id="Path_629" data-name="Path 629" d="M226.364,498.57c1.472,2.946,1.027,6.155-1,7.167s-4.859-.558-6.331-3.5-1.029-6.155.994-7.167S224.889,495.622,226.364,498.57Z" transform="translate(-193.516 -400.778)" fill="#f3f3f3"/>
    </g>
    <g id="Group_413" data-name="Group 413" transform="translate(666.748 476.971)">
      <path id="Rectangle_206" data-name="Rectangle 206" d="M1.671,0h27.8a0,0,0,0,1,0,0V6.711a0,0,0,0,1,0,0H1.669A1.669,1.669,0,0,1,0,5.042V1.671A1.671,1.671,0,0,1,1.671,0Z" transform="translate(74.035 120.471)" fill="#c44747"/>
      <path id="Rectangle_207" data-name="Rectangle 207" d="M1.669,0H29.476a0,0,0,0,1,0,0V6.709a0,0,0,0,1,0,0H1.672A1.672,1.672,0,0,1,0,5.037V1.669A1.669,1.669,0,0,1,1.669,0Z" transform="translate(77.861 127.182)" fill="#5084c7"/>
      <path id="Rectangle_208" data-name="Rectangle 208" d="M1.671,0h27.8a0,0,0,0,1,0,0V6.711a0,0,0,0,1,0,0H1.669A1.669,1.669,0,0,1,0,5.042V1.671A1.671,1.671,0,0,1,1.671,0Z" transform="translate(86.794 120.471)" fill="#e55353"/>
      <path id="Rectangle_209" data-name="Rectangle 209" d="M1.669,0H29.476a0,0,0,0,1,0,0V6.709a0,0,0,0,1,0,0H1.672A1.672,1.672,0,0,1,0,5.037V1.669A1.669,1.669,0,0,1,1.669,0Z" transform="translate(90.62 127.182)" fill="#5084c7"/>
      <path id="Rectangle_210" data-name="Rectangle 210" d="M1.672,0h27a0,0,0,0,1,0,0V5.33a0,0,0,0,1,0,0h-27A1.671,1.671,0,0,1,0,3.659V1.672A1.672,1.672,0,0,1,1.672,0Z" transform="translate(87.6 121.161)" fill="#fae6de"/>
      <path id="Rectangle_211" data-name="Rectangle 211" d="M1.671,0h27a0,0,0,0,1,0,0V5.132a0,0,0,0,1,0,0h-27A1.668,1.668,0,0,1,0,3.464V1.671A1.671,1.671,0,0,1,1.671,0Z" transform="translate(91.428 127.97)" fill="#fae6de"/>
      <path id="Path_630" data-name="Path 630" d="M734.342,634.773l1.778-5.9,7.989,1.149-1.1,5.309Z" transform="translate(-731.732 -402.109)" fill="#eea886"/>
      <path id="Path_631" data-name="Path 631" d="M807.945,636.479l.5,3.214,8.7-1.607-.549-4.806Z" transform="translate(-752.791 -403.37)" fill="#eea886"/>
      <g id="Group_398" data-name="Group 398" transform="translate(2.61 117.152)">
        <path id="Path_632" data-name="Path 632" d="M766.4,488.175s-1.349,11.526-2.831,23.338c-.338,2.687-.682,5.389-1.018,7.973-1.107,8.49-2.13,15.709-2.568,16.975-1.179,3.409-14.161,50.545-14.161,50.545s-11.055,1.142-11.483-.255c0,0,8.705-53.043,8.546-54.975s1.735-56.449,1.735-56.449S765.755,485.042,766.4,488.175Z" transform="translate(-734.342 -475.328)" fill="#303669"/>
      </g>
      <g id="Group_399" data-name="Group 399" transform="translate(12.66 108.136)">
        <path id="Path_633" data-name="Path 633" d="M782.111,468.011s11.392,53.316,12.36,57.4,7.012,60.218,7.012,60.218-3.544,2.484-12.037,2.052c0,0-12.918-58.917-13.95-60.874-4-7.589-17.868-45.224-19.8-50.486s-7.277-10.577-7.277-10.577S762.385,457.567,782.111,468.011Z" transform="translate(-748.419 -462.698)" fill="#303669"/>
      </g>
      <g id="Group_400" data-name="Group 400" transform="translate(75.911 51.877)">
        <path id="Path_634" data-name="Path 634" d="M837.021,388.1s8.038-4.378,8.793-4.2.938.654.2,1.1-7.657,4.468-7.657,4.468,10.289-3.5,10.94-3.5c.381,0,.791.892.417,1.167s-10.4,4.36-10.4,4.36,9.611-3.248,10.151-3.073a.754.754,0,0,1-.044,1.371c-.7.293-9.472,3.841-9.472,3.841s7.125-1.9,7.491-1.46c.224.266.613,1.019-1.237,1.448s-6.132,1.927-6.132,1.927Z" transform="translate(-837.021 -383.892)" fill="#eea886"/>
      </g>
      <g id="Group_402" data-name="Group 402" transform="translate(67.377 51.514)">
        <g id="Group_401" data-name="Group 401">
          <path id="Path_635" data-name="Path 635" d="M825.067,394.5s2.564-1.618,2.436-3.4a10.809,10.809,0,0,1,1.053-4.229c.365-.854.58-3.9,1.582-3.444s-.127,5.028-.186,6.032,3.34-1.746,4.32-1.739,4.792,6.156,2.262,7.763-6.184,1.568-6.578,1.944a18.6,18.6,0,0,1-1.8,1.245Z" transform="translate(-825.067 -383.383)" fill="#eea886"/>
        </g>
      </g>
      <g id="Group_403" data-name="Group 403" transform="translate(37.68 55.931)">
        <path id="Path_636" data-name="Path 636" d="M786.533,389.57s5.853,15.161,7.052,15.1,21.227-9.849,21.227-9.849,3.615,5.45,2.629,6.1c-1.374.907-27.27,19.2-29.243,18.25s-2.864-12.751-2.864-12.751S780.421,390.231,786.533,389.57Z" transform="translate(-783.467 -389.57)" fill="#5f8cc9"/>
      </g>
      <g id="Group_404" data-name="Group 404" transform="translate(31.762 16.14)">
        <path id="Path_637" data-name="Path 637" d="M785.9,350.088s-.042.565-.092,1.439c-.037.642-.079,1.453-.111,2.329a31.941,31.941,0,0,0,.208,6.528c.591,2.429-10.4-7.443-10.4-7.443a120.222,120.222,0,0,0-.283-17.04C774.392,326.916,785.9,350.088,785.9,350.088Z" transform="translate(-775.178 -333.831)" fill="#eea886"/>
      </g>
      <g id="Group_405" data-name="Group 405" transform="translate(11.178 34.973)">
        <path id="Path_638" data-name="Path 638" d="M781.97,411.549a65,65,0,0,0-.488,14.7c.125,2.424.309,4.956.534,7.549.3,3.532.674,7.185,1.03,10.85,0,0-7.394,3.856-36.594,8.554-1.161-37.878,7.357-76.663,7.357-76.663,2.168-8.222,6.674-11.2,13.464-16.33.04,0,.96.078,9.959,6.521.65.465,3.894,6.474,5.76,13.118,3.307,11.76,2.463,17.854.108,26.953-.255,1.014-.526,2.067-.789,3.174C782.186,410.481,782.079,411.007,781.97,411.549Z" transform="translate(-746.344 -360.212)" fill="#e3e3e3"/>
      </g>
      <g id="Group_406" data-name="Group 406" transform="translate(36.1 30.759)">
        <path id="Path_639" data-name="Path 639" d="M787.549,357.387c-.037.642-.094,1.89-.126,2.764a28.944,28.944,0,0,1-6.169-5.841C782.906,355.95,787.549,357.387,787.549,357.387Z" transform="translate(-781.254 -354.31)" fill="#a77860"/>
      </g>
      <path id="Path_640" data-name="Path 640" d="M771.549,516.133c-.338,2.687-.682,5.389-1.018,7.973l0,0c-4.1-10.374-8.224-32.238-8.307-32.63C762.8,493.023,771.549,516.133,771.549,516.133Z" transform="translate(-739.709 -362.796)" fill="#1e234d"/>
      <path id="Path_641" data-name="Path 641" d="M775.658,360.212s13.815,15.145,17.252,26.209a54.728,54.728,0,0,0-7.037-19.654S781.6,360.3,775.658,360.212Z" transform="translate(-743.553 -325.239)" fill="#eea886"/>
      <g id="Group_407" data-name="Group 407" transform="translate(28.725 6.071)">
        <path id="Path_642" data-name="Path 642" d="M791.538,323.381s3.788,6.425,3.8,7.771-1.615,1.35-.763,2.759,2.584,4.047,1.75,4.9-2.825.435-3.237,2.268-2.728,7.415-5.271,7.4-11.3-4.425-11.884-6.221-3.908-11.818-4.966-13.748,17.371-11.23,18.971-8.182Z" transform="translate(-770.923 -319.726)" fill="#eea886"/>
      </g>
      <g id="Group_408" data-name="Group 408" transform="translate(25.689)">
        <path id="Path_643" data-name="Path 643" d="M789.98,320.3s2.74-1.333,1.761-4.045-3.31-6.309-8.661-4.582-9.394,5.389-13.09,5.985-4.555,4.2-1.305,10.913,4.555,10.123,4.555,10.123,1.117-5.9,2.521-5.672,3.661-3.594,3.661-3.594l.374.987,2.5-.166s-3.256-7.033-1.532-7.925S789.711,321.081,789.98,320.3Z" transform="translate(-766.67 -311.222)" fill="#434343"/>
      </g>
      <g id="Group_409" data-name="Group 409" transform="translate(36.1 19.027)">
        <path id="Path_644" data-name="Path 644" d="M786.465,337.875s1.655,6.018,3.025,6.084,6.045.832,6.918,1.52a1.277,1.277,0,0,1,.4,1.4c-.288.874-1.113,6.081.542,7.808,0,0-1.179,1.857-7.08-.209a28.462,28.462,0,0,1-9.01-4.867s4.232-8.057,2.715-11.566Z" transform="translate(-781.254 -337.875)" fill="#434343"/>
      </g>
      <g id="Group_410" data-name="Group 410" transform="translate(32.792 15.392)">
        <path id="Path_645" data-name="Path 645" d="M782.265,334.573a3.11,3.11,0,0,0-4.839-.992c-2.272,1.64.747,7.12,3.1,7.01S783.54,337.419,782.265,334.573Z" transform="translate(-776.621 -332.784)" fill="#eea886"/>
      </g>
      <path id="Path_646" data-name="Path 646" d="M764.388,393.857l18.7-3.359S782,369.208,770.969,370.1,761.43,381.213,764.388,393.857Z" transform="translate(-739.717 -328.061)" fill="#5f8cc9"/>
      <g id="Group_412" data-name="Group 412" transform="translate(64.349 119.414)">
        <g id="Group_411" data-name="Group 411">
          <path id="Path_647" data-name="Path 647" d="M828.3,478.5a9.965,9.965,0,0,0,2.959.843c.942-.045,6.723-.621,7.477.372s6.3,6.6,5.548,7.442a.979.979,0,0,1-1.693,0c-.374-.423-4.653-4.026-5.171-4.085,0,0,3.809,4.274,3.15,5.545s-1.833,1.036-2.54,1.271-1.879,1.13-3.15.564-6.111-5.836-7.287-6.59-6.723-3.637-6.77-3.92S828.3,478.5,828.3,478.5Z" transform="translate(-820.826 -478.497)" fill="#eea886"/>
        </g>
      </g>
      <rect id="Rectangle_212" data-name="Rectangle 212" width="4.405" height="108.914" transform="translate(78.56 141.152)" fill="#a1958c"/>
      <rect id="Rectangle_213" data-name="Rectangle 213" width="170.751" height="7.281" transform="translate(247.37 141.152) rotate(180)" fill="#a1958c"/>
      <rect id="Rectangle_214" data-name="Rectangle 214" width="4.406" height="108.914" transform="translate(242.724 250.066) rotate(180)" fill="#a1958c"/>
      <path id="Path_648" data-name="Path 648" d="M808.273,640.645s6.561-1.389,6.788-1.595,1.593-2.828,2.619-2.392,1.094,3.6,2.1,4.118,8.954,5.687,9.937,6.637,6.923.276,7.635,1.943.839,5.632-8.055,4.856-19,.846-20.931-.17S807.708,643.212,808.273,640.645Z" transform="translate(-752.617 -404.322)" fill="#565e96"/>
      <path id="Path_649" data-name="Path 649" d="M733.3,636.125s6.7-.323,6.954-.488,2.026-2.537,2.968-1.943.505,3.729,1.414,4.4,7.929,7.046,8.746,8.14,6.791,1.381,7.227,3.14-.073,5.695-8.727,3.5-18.894-2.2-20.635-3.515S732.326,638.568,733.3,636.125Z" transform="translate(-730.685 -403.461)" fill="#565e96"/>
      <path id="Path_650" data-name="Path 650" d="M788.086,446.566S775.915,435.339,775.24,433.4c-.665-1.9-7.471-27.766-7.679-28.58l19.991,34.193C787.677,441.441,787.862,443.973,788.086,446.566Z" transform="translate(-741.236 -338.003)" fill="#4a6c9c"/>
      <path id="Path_651" data-name="Path 651" d="M778.953,378.66s-2.658-9.1-12.263-5.03c-5.285,2.242-5.381,8.942,3.027,32.052,0,0,5.849,15.756,7.3,17.5,5.271,6.344,26.973,27.95,29.635,28.723l6-3.92s-11.018-12.447-15.042-17.714c-4.044-5.3-11.015-16.668-11.015-16.668Z" transform="translate(-739.934 -328.779)" fill="#5f8cc9"/>
    </g>
    <g id="Group_466" data-name="Group 466" transform="translate(769.404 520.065)">
      <g id="Group_442" data-name="Group 442" transform="translate(0.109 30.123)">
        <path id="Path_680" data-name="Path 680" d="M894.266,434.058s-2.02-2.613-2.134-4.955-2.6-6.187-3.682-7.1-8.714-8.028-9.739-8.2-1.307,1.259-.525,1.946,7.472,7.666,7.472,7.666-7.824-7.3-8.789-7.3a1.4,1.4,0,0,0-1.066,2.31s-2.284.907-.454,2.8l3.632,3.78s-2.252-1.635-1.693.393c.3,1.079,4.936,4.872,5.6,5.9s6.171,5.717,6.171,5.717Z" transform="translate(-874.639 -413.785)" fill="#eea886"/>
      </g>
      <path id="Path_681" data-name="Path 681" d="M1005.259,436.509s3.466,1.347,2.055,18.195-7.323-5.749-7.323-5.749Z" transform="translate(-910.396 -390.164)" fill="#de3573"/>
      <path id="Path_682" data-name="Path 682" d="M961.031,638.744s.645,4.732.726,5.442,7.179-.418,7.179-.418l.575-5.632S961.918,638.078,961.031,638.744Z" transform="translate(-899.248 -447.853)" fill="#121d2e"/>
      <path id="Path_683" data-name="Path 683" d="M955.181,645.64s-6.06,3.424-8.236,4.667-8.87,1.888-8.627,3.179,2.178,4.194,11.212,4.113,13.389.567,14.358-.967-1.4-11.312-1.4-11.312S960.429,646.668,955.181,645.64Z" transform="translate(-892.748 -449.909)" fill="#2f4b78"/>
      <g id="Group_443" data-name="Group 443" transform="translate(77.527 94.332)">
        <rect id="Rectangle_218" data-name="Rectangle 218" width="3.976" height="110.133" fill="#706865"/>
      </g>
      <path id="Path_684" data-name="Path 684" d="M942.366,563.7s10.764,53.69,12.336,54.054,11.164-.53,11.164-.53.457-29.929-.148-36.463-.725-19-.725-19Z" transform="translate(-893.908 -426.001)" fill="#131e30"/>
      <g id="Group_446" data-name="Group 446" transform="translate(16.488 52.511)">
        <g id="Group_445" data-name="Group 445">
          <g id="Group_444" data-name="Group 444">
            <path id="Path_685" data-name="Path 685" d="M897.634,445.148a.043.043,0,0,1,.021,0C897.569,445.185,897.557,445.188,897.634,445.148Z" transform="translate(-897.583 -445.146)" fill="#323657"/>
          </g>
        </g>
      </g>
      <g id="Group_448" data-name="Group 448" transform="translate(66.742 187.513)">
        <g id="Group_447" data-name="Group 447">
          <path id="Path_686" data-name="Path 686" d="M1012.91,650.852l-1.039,2.921-43.893-13.6,2.1-5.917Z" transform="translate(-967.978 -634.256)" fill="#918783"/>
        </g>
      </g>
      <g id="Group_450" data-name="Group 450" transform="translate(65.236 143.627)">
        <g id="Group_449" data-name="Group 449">
          <rect id="Rectangle_219" data-name="Rectangle 219" width="4.989" height="47.721" transform="translate(4.989 47.721) rotate(180)" fill="#918783"/>
        </g>
      </g>
      <g id="Group_452" data-name="Group 452" transform="translate(53.019 141.093)">
        <g id="Group_451" data-name="Group 451">
          <rect id="Rectangle_220" data-name="Rectangle 220" width="29.424" height="2.811" transform="translate(29.424 2.811) rotate(180)" fill="#5e5854"/>
        </g>
      </g>
      <g id="Group_454" data-name="Group 454" transform="translate(23.401 187.14)">
        <g id="Group_453" data-name="Group 453">
          <path id="Path_687" data-name="Path 687" d="M907.266,650.7l1.039,2.921,43.894-13.6-1.929-6.29Z" transform="translate(-907.266 -633.734)" fill="#918783"/>
        </g>
      </g>
      <g id="Group_456" data-name="Group 456" transform="translate(54.327 187.14)">
        <g id="Group_455" data-name="Group 455">
          <path id="Path_688" data-name="Path 688" d="M950.587,653.312v3.4l14.007-16.687-1.929-6.29Z" transform="translate(-950.587 -633.734)" fill="#918783"/>
        </g>
      </g>
      <g id="Group_458" data-name="Group 458" transform="translate(19.3 204.07)">
        <g id="Group_457" data-name="Group 457">
          <path id="Path_689" data-name="Path 689" d="M901.522,661.552a4.1,4.1,0,1,0,4.1-4.1A4.1,4.1,0,0,0,901.522,661.552Z" transform="translate(-901.522 -657.449)" fill="#bfb2ac"/>
        </g>
      </g>
      <g id="Group_460" data-name="Group 460" transform="translate(53.978 204.07)">
        <g id="Group_459" data-name="Group 459">
          <path id="Path_690" data-name="Path 690" d="M950.1,661.552a4.1,4.1,0,1,0,4.1-4.1A4.1,4.1,0,0,0,950.1,661.552Z" transform="translate(-950.098 -657.449)" fill="#bfb2ac"/>
        </g>
      </g>
      <g id="Group_462" data-name="Group 462" transform="translate(107.571 204.07)">
        <g id="Group_461" data-name="Group 461">
          <path id="Path_691" data-name="Path 691" d="M1025.172,661.552a4.1,4.1,0,1,0,4.1-4.1A4.1,4.1,0,0,0,1025.172,661.552Z" transform="translate(-1025.172 -657.449)" fill="#bfb2ac"/>
        </g>
      </g>
      <g id="Group_463" data-name="Group 463" transform="translate(32.684 130.441)">
        <path id="Rectangle_221" data-name="Rectangle 221" d="M5.327,0H64.383a5.325,5.325,0,0,1,5.325,5.325v0a5.325,5.325,0,0,1-5.325,5.325H5.325A5.325,5.325,0,0,1,0,5.327v0A5.327,5.327,0,0,1,5.327,0Z" transform="translate(69.708 10.651) rotate(-180)" fill="#ccc"/>
      </g>
      <path id="Path_692" data-name="Path 692" d="M915.747,648.764l1.043,5.979s7.676-.462,8-1.511-.84-6.622-.84-6.622Z" transform="translate(-886.292 -450.278)" fill="#121d2e"/>
      <path id="Path_693" data-name="Path 693" d="M916.125,655.291s2.411,8.147.717,11.213-7.18,3.629-9.2,3.468-7.5-2.017-12.585-1.775-11.05-1.049-9.6-4.193,12.523-2.179,15.9-5.083a13.539,13.539,0,0,1,6.42-3.29S907.816,658.2,916.125,655.291Z" transform="translate(-877.564 -452.762)" fill="#2f4b78"/>
      <path id="Path_694" data-name="Path 694" d="M963.226,527.732s.977,15.131-6.525,17.913l-58.435,4.5s16.1,63.019,16.1,64.109l-11.014,2.117s-26.692-57.547-27.956-60.561c-1.573-3.75-1.451-13.671,3.147-17.422s34.119-14.36,39.924-14.742S963.226,527.732,963.226,527.732Z" transform="translate(-874.486 -415.089)" fill="#18263d"/>
      <path id="Path_695" data-name="Path 695" d="M976.622,413.847s-.216,3.9-.321,8.922-13.656,1.711-13.656,1.711.61-5.423-.946-7.15S976.622,413.847,976.622,413.847Z" transform="translate(-899.41 -383.68)" fill="#eea987"/>
      <path id="Path_696" data-name="Path 696" d="M957.811,379.556c-.7,2.049-5.306,3.9-4.6,16.752s5.765,12.169,9.641,12.029,10.919-1.134,15.2-10.494,1.129-15.591-1.163-19.6S957.811,379.556,957.811,379.556Z" transform="translate(-896.989 -373.064)" fill="#eea987"/>
      <path id="Path_697" data-name="Path 697" d="M900.555,441.512l-1.438-2.142s-7.664,4.251-7.341,5.272a9.441,9.441,0,0,0,1.351,2.324Z" transform="translate(-879.43 -390.982)" fill="#ebd9d0"/>
      <path id="Path_698" data-name="Path 698" d="M954.026,384.235a2.769,2.769,0,0,1-1.483-1.9c-.447-1.531-.416-12.436,13.053-10.518,10.131,1.444,11.327,1.145,14.277,5.329,3.336,4.73.779,19.614-5.9,25.139,0,0-7.889-2.756-10.128-9.4-.675-2,1.979-7.532-1.866-7.45-2.859.062-3.909,7.068-3.909,7.068l-1.912.326S959.727,382.3,954.026,384.235Z" transform="translate(-896.784 -371.589)" fill="#163342"/>
      <path id="Path_699" data-name="Path 699" d="M963.066,427.279v-1.507s10.983-3.285,13.692-1.723l-.036,1.519Z" transform="translate(-899.831 -386.478)" fill="#ebd9d0"/>
      <path id="Path_700" data-name="Path 700" d="M974.585,433.593c-1.089-.6-16.641-7.014-17.972-7.256s-13.656,1.711-13.656,1.711-15.266,8.136-17.538,10.147c-2.031,1.8-12.309,15.421-12.711,14.939s-11.133-15.89-11.133-15.89l-8.791,6.452s15.972,32.669,20.73,30.411,12.906-13.714,12.906-13.714,4.664,14.1,4.664,17.608-8.266,15.963-7.38,17.8a.928.928,0,0,0,.278.2c2.482,1.75,21.462,14.714,34.487,11.378,9.782-2.5,10.848-7.963,10.848-7.963s.7-16.6,1.065-21.68c.136-1.91,1.069-7.851,1.216-11.079C969.851,458.724,974.585,433.593,974.585,433.593Z" transform="translate(-879.722 -387.247)" fill="#de3573"/>
      <path id="Path_701" data-name="Path 701" d="M918.295,462.494l-5.985,5.773,3.519-9.237Z" transform="translate(-885.308 -396.608)" fill="#96244e"/>
      <g id="Group_464" data-name="Group 464" transform="translate(70.604 56.4)">
        <path id="Rectangle_222" data-name="Rectangle 222" d="M14.143,0H33.93A14.143,14.143,0,0,1,48.073,14.143v38.3A14.142,14.142,0,0,1,33.931,66.58H14.143A14.143,14.143,0,0,1,0,52.437V14.143A14.143,14.143,0,0,1,14.143,0Z" transform="translate(48.073 66.58) rotate(180)" fill="#eee"/>
      </g>
      <g id="Group_465" data-name="Group 465" transform="translate(76.448 98.905)">
        <path id="Path_702" data-name="Path 702" d="M984.249,549.671c7.087,0,12.834-2.381,17.087-7.076,9.61-10.609,7.883-29.26,7.806-30.049a2.675,2.675,0,0,0-5.323.528c.019.211,1.551,17.117-6.458,25.942-3.24,3.57-7.528,5.306-13.111,5.306a2.675,2.675,0,1,0,0,5.35Z" transform="translate(-981.574 -510.135)" fill="#ccc"/>
      </g>
    </g>
    <g id="Group_502" data-name="Group 502" transform="translate(507.659 581.592)">
      <g id="Group_467" data-name="Group 467" transform="translate(7.75 95.799)">
        <path id="Path_703" data-name="Path 703" d="M531.408,595.455s-3.38.585-4.665-.391a13.885,13.885,0,0,0-4.187-1.837c-.94-.239-3.616-2.03-3.856-.868s4.284,3.155,5.161,3.758-3.519,1.754-4.116,2.608,2.2,8.148,5.1,7,5.121-4.333,5.68-4.43a18.368,18.368,0,0,0,2.15-.747Z" transform="translate(-518.691 -591.97)" fill="#eea886"/>
      </g>
      <g id="Group_468" data-name="Group 468" transform="translate(0 102.122)">
        <path id="Path_704" data-name="Path 704" d="M517.242,600.828s-8.616,4.111-8.928,4.88-.033,1.236.79.888,8.457-3.724,8.457-3.724-9.268,6.631-9.667,7.2c-.233.331.26,1.266.722,1.121s10.056-6.169,10.056-6.169-8.641,6.208-8.827,6.79a.8.8,0,0,0,1.175.852c.675-.414,9.051-5.7,9.051-5.7s-5.979,4.932-5.839,5.535c.085.368.476,1.194,1.975-.13s5.391-4.053,5.391-4.053Z" transform="translate(-507.835 -600.828)" fill="#eea886"/>
      </g>
      <g id="Group_469" data-name="Group 469" transform="translate(56.617 39.788)">
        <path id="Path_705" data-name="Path 705" d="M635.361,579.2s-.011-.017-.015-.034v-.013l0-.007-1.332.084c-7.275.443-42.029,2.455-46.865.68,0,0,.133-.473.365-1.094q.425-1.13.861-2.151c2.282-5.375,4.718-8.622,5.695-10.926a8.7,8.7,0,0,0,.941-3.224c.677-5.407.573-14-.47-17.649-1.413-4.954-3.614-8.255-1.335-14.782a53.178,53.178,0,0,0,2.682-12.474l7.3-2.886s-.469,17.484,9.438,17.876,9.57-19.087,9.57-19.087l7.491,2.342s1.338,10.3,2.83,12.895.707,9.512-1.022,13.521-2.829,11.558-2.829,16.042a13.541,13.541,0,0,0,.684,3.617c1.436,4.819,4.709,11.441,5.48,14.251.054.195.1.37.124.527.15.831.246,1.39.309,1.763A4.837,4.837,0,0,1,635.361,579.2Z" transform="translate(-587.144 -513.511)" fill="#ed6c3e"/>
      </g>
      <g id="Group_470" data-name="Group 470" transform="translate(43.763 105.422)">
        <path id="Path_706" data-name="Path 706" d="M664.469,638.944c-8.177.157-26.969,1.887-35.066-1.1a259.025,259.025,0,0,0-29.645-8.208,56.453,56.453,0,0,0-8.993-1.306c-5.459-.112-11.056-5-15.048-8.307a19.416,19.416,0,0,0-3.944-2.816,6.1,6.1,0,0,1-2.11-1.321,1.679,1.679,0,0,1-.523-1.014c-.042-.787.9-1.4,3.026-1.4.594,0,1.2.027,1.817.074,3.712.277,7.673,1.251,9.9,1.185,2.594-.08,9.671,6.131,11.087,6.446a26.792,26.792,0,0,0,4.672.832,13.85,13.85,0,0,0,10.5-3.191,69.689,69.689,0,0,1,6.914-5.187c6.105-4.133,12.978-8.089,13.132-8.177h0l0,.007v.006l0,.007a.17.17,0,0,1,.014.034,10.55,10.55,0,0,0,.988,1.955,8.171,8.171,0,0,0,1.522,1.787,5.185,5.185,0,0,0,2.188,1.156,15.5,15.5,0,0,0,2.119.265c.178.013.361.027.553.039,1.144.078,2.531.143,4.058.217,1.229.06,2.549.127,3.9.209,5.886.358,12.484,1.027,15.468,2.888,1.4.875,2.967,1.923,4.512,3.072h0c3.988,2.96,7.863,6.581,8.634,9.57a4.141,4.141,0,0,1,.138.96C674.376,631.867,672.646,638.786,664.469,638.944Z" transform="translate(-569.138 -605.451)" fill="#51578c"/>
      </g>
      <g id="Group_471" data-name="Group 471" transform="translate(41.367 105.419)">
        <path id="Path_707" data-name="Path 707" d="M629.261,605.511a10.122,10.122,0,0,0,.975,1.947,8.17,8.17,0,0,0,1.522,1.787,5.184,5.184,0,0,0,2.188,1.156,19.076,19.076,0,0,0,2.672.3l-21.935,11.81-28.7-.7-11.231-1.793-2.135-.342s-5.578-3.88-6.84-4.693c.85-.031,1.656-.067,2.4-.116-.042-.787.9-1.4,3.026-1.4.594,0,1.2.027,1.817.074,2.029-2.078,8.01-7.329,8.01-7.329l48.215-.767Z" transform="translate(-565.781 -605.446)" fill="#51578c"/>
      </g>
      <g id="Group_472" data-name="Group 472" transform="translate(94.87 110.639)">
        <path id="Path_708" data-name="Path 708" d="M666.026,613.224c-8.192,2.261-15.038,8.468-15.038,8.468l-10.26,1.849,16.781-10.782c.178.013.361.027.553.039,1.144.079,2.531.143,4.058.217C663.349,613.075,664.669,613.142,666.026,613.224Z" transform="translate(-640.728 -612.759)" fill="#3d4169"/>
      </g>
      <g id="Group_473" data-name="Group 473" transform="translate(11.51 106.498)">
        <path id="Path_709" data-name="Path 709" d="M629.763,611.071q-.5.122-1.052.285a26.687,26.687,0,0,0-9.561,5.139,13.08,13.08,0,0,1-1.866,1.3c-4.274,2.515-11.745,4.874-14.566,6.486a54.767,54.767,0,0,1-5.989,2.367.307.307,0,0,0-.034.012c-2.761.983-6.2,2.163-9.862,3.409-9.171,3.121-19.737,6.669-24.527,8.679-8.8,3.7-30.19,1.966-33.495.63-2.412-.979-4.275-5.307-4.739-9.073a10.73,10.73,0,0,1,.1-3.744c.574-2.341,3.451-5.136,6.956-7.257h0a24.175,24.175,0,0,1,7.116-2.964c3.2-.7,8.942-.734,13.821-.867.6-.015,1.184-.034,1.748-.054h0c.85-.031,1.656-.068,2.4-.116,2.126-.137,3.724-.361,4.29-.791a.543.543,0,0,0,.072-.06l.13.048h0l1.943.718,12.624,4.659c5.395,4.263,11.8,2.215,14.529,1.748,5.424-.929,5.323-2.8,7.269-5.393,1.677-2.238,3.389-2,7.055-2.172.585-.029,1.161-.042,1.714-.042a10.268,10.268,0,0,0,1.591-.129h0c3.734-.574,8.045-2.974,9.826-5.236a2.847,2.847,0,0,1,1.009-.763,6.305,6.305,0,0,1,1.311-.448c.106-.026.214-.051.325-.073a19.819,19.819,0,0,1,6.648-.236C628.835,607.291,632.674,610.362,629.763,611.071Z" transform="translate(-523.958 -606.957)" fill="#eddad3"/>
      </g>
      <g id="Group_474" data-name="Group 474" transform="translate(11.51 113.993)">
        <path id="Path_710" data-name="Path 710" d="M596.7,629.662c-2.761.984-6.2,2.162-9.864,3.408-9.168,3.122-19.736,6.67-24.525,8.679a34.071,34.071,0,0,1-9.931,1.975l-.044.005c-1.193.094-2.417.157-3.648.2-.076,0-.154.006-.232.007a107,107,0,0,1-14.189-.562l-.032,0a26.459,26.459,0,0,1-5.418-.988c-2.411-.977-4.278-5.307-4.739-9.072a10.715,10.715,0,0,1,.1-3.744c.573-2.341,3.451-5.135,6.956-7.256h0a24.2,24.2,0,0,1,7.116-2.963c3.2-.7,8.941-.735,13.821-.866.595-.016,1.182-.034,1.748-.054h0c.849-.03,1.656-.067,2.4-.115,2.128-.137,3.726-.363,4.293-.792a.676.676,0,0,0,.072-.059l.131.047h0l1.942.719,12.625,4.659c4.477,3.539,9.652,2.728,12.84,2.085.653-.134,1.224-.258,1.688-.338a15.51,15.51,0,0,0,2.483-.608Z" transform="translate(-523.958 -617.457)" fill="#51578c"/>
      </g>
      <g id="Group_475" data-name="Group 475" transform="translate(14.436 38.804)">
        <path id="Path_711" data-name="Path 711" d="M604.827,560.646s15.792-2.323,18.684-2.5c.811-.049-6.208-17.943-7.23-19.594a1.266,1.266,0,0,0-.506-.388c-2.781-1.394-14.952-2.108-14.952-2.108l-24.844,2.516s-.047.087-.136.249c-.8,1.477-4.264,9.6-5.186,11.868-1.022,2.516-5.455,15.4-7.736,16.154-5.071,1.669-26.937,10.547-27.565,10.862s-8.228-.892-7.2-2.307,25.591-13,27.652-16.017c1.883-2.753,6.882-17.826,7.7-20.286.765-2.3,2.567-14.282,6.814-17.507a44.851,44.851,0,0,1,8.343-4.515l.285-.124c2.566-1.077,5.018-1.927,7.1-2.706l.212-.079c2.291-.847,4.033-1.3,4.033-1.3l11.133-.73s2.221.516,3.861.984l.12.035c2.476.708,5.832,1.7,7.371,2.307l.11.044c.16.064.331.129.514.2,2.849,1.1,8.24,3.153,8.967,5.339.787,2.358,3.145,8.569,3.775,13.13s.276,1.393,4.724,15.812c.778,2.525,5.857,15.744.3,15.849a222.279,222.279,0,0,1-23.352-.139C606.3,565.631,604.827,560.646,604.827,560.646Z" transform="translate(-528.056 -512.132)" fill="#eea886"/>
      </g>
      <g id="Group_476" data-name="Group 476" transform="translate(61.688 39.823)">
        <path id="Path_712" data-name="Path 712" d="M634.712,538.573a17.483,17.483,0,0,1-1.19,3.709c-1.852,3.955-2.831,11.558-2.831,16.041a13.532,13.532,0,0,0,.685,3.617h0c-17.262-5.486-34.456,1.447-34.456,1.447.676-5.407.691-14.861-.353-18.508-.586-2.05-1.3-3.818-1.787-5.649a14.467,14.467,0,0,1,.452-9.134,51.77,51.77,0,0,0,2.368-12.613l.285-.123c2.566-1.077,5.018-1.927,7.1-2.706l.212-.079c.036,3.257.692,17.691,9.457,18.039,8.844.353,9.631-15.644,9.69-19.054,2.476.708,5.832,1.7,7.371,2.307l.11.044c.16.064.331.129.514.2.327,2.983,1.053,10.1,2.206,12.652C635.446,530.756,635.492,534.908,634.712,538.573Z" transform="translate(-594.246 -513.559)" fill="#ed6c3e"/>
      </g>
      <g id="Group_477" data-name="Group 477" transform="translate(96.067 117.849)">
        <path id="Path_713" data-name="Path 713" d="M642.405,626.3s20.855-3.761,25.73-1.639,8.491,7,13.287,6.526.059-2.661-3.36-3.571-6.084-5.039-15.131-4.743a78.5,78.5,0,0,0-15.12,1.828S643.761,625.758,642.405,626.3Z" transform="translate(-642.405 -622.858)" fill="#474c7a"/>
      </g>
      <g id="Group_478" data-name="Group 478" transform="translate(39.617 113.955)">
        <path id="Path_714" data-name="Path 714" d="M576.529,623.639l-7.408-1.236s-3.14-3.549-5.791-3.941c.6-.016,1.184-.034,1.749-.054h0c.85-.031,1.656-.067,2.4-.116,2.127-.137,3.725-.361,4.291-.791.071,0,.137-.007.2-.012h0c.938-.054,1.556-.086,1.556-.086l.387.8Z" transform="translate(-563.33 -617.403)" fill="#3d4169"/>
      </g>
      <g id="Group_479" data-name="Group 479" transform="translate(43.774 113.425)">
        <path id="Path_715" data-name="Path 715" d="M574.93,622.579a10.874,10.874,0,0,0-3.31-2.164c-1.533-.474-3.983-2.84-1.2-3.545,3.5-.885,9.849,1.341,11.578,1.3a13.881,13.881,0,0,1,7.315,2.456c2.432,1.714,5.435,4.2,7.356,4.157,0,0-.125.464-1.384.425s-19.666-2.062-19.666-2.062Z" transform="translate(-569.153 -616.661)" fill="#eddad3"/>
      </g>
      <g id="Group_480" data-name="Group 480" transform="translate(24.943 118.732)">
        <path id="Path_716" data-name="Path 716" d="M598.5,625.513s-3.527,3.119-17.209,1.782-20.442-3.573-27.6-.725-6.211,3.634-9.828,3.634,2.28-4.481,9.985-5.818,26.809,2.358,29.012,2.358S593.6,627.584,598.5,625.513Z" transform="translate(-542.775 -624.095)" fill="#474c7a"/>
      </g>
      <g id="Group_481" data-name="Group 481" transform="translate(21.782 120.482)">
        <path id="Path_717" data-name="Path 717" d="M603.226,635.352s-22.292,9.264-46.735,10.974l-.044.005c-1.211.084-2.429.151-3.648.2-.076,0-.154.006-.232.007a89.921,89.921,0,0,1-14.189-.562l-.032,0s39.952-14.358,53.887-18.4a34.6,34.6,0,0,1,4.112-1.022l.059.076,4.408,5.641Z" transform="translate(-538.346 -626.546)" fill="#51578c"/>
      </g>
      <g id="Group_484" data-name="Group 484" transform="translate(75.241 31.104)">
        <g id="Group_483" data-name="Group 483">
          <g id="Group_482" data-name="Group 482">
            <path id="Path_718" data-name="Path 718" d="M625.823,502.087s-.684,8.492.952,11.037-1.4,6-7.651,4.816-5.887-4.725-5.887-4.725,1.749-5.241,1.238-9.435S625.823,502.087,625.823,502.087Z" transform="translate(-613.232 -501.346)" fill="#eea886"/>
          </g>
        </g>
      </g>
      <g id="Group_485" data-name="Group 485" transform="translate(99.779 42.373)">
        <path id="Path_719" data-name="Path 719" d="M647.6,517.132s8.009,2.269,9.241,5.144,4.267,12.174,4.518,15.195l-12.047,3.057Z" transform="translate(-647.604 -517.132)" fill="#ed6c3e"/>
      </g>
      <g id="Group_486" data-name="Group 486" transform="translate(49.884 43.747)">
        <path id="Path_720" data-name="Path 720" d="M592.869,519.056s-8.4,1.991-11.052,6.737-4.106,13.507-4.106,13.507l13.232,1.779Z" transform="translate(-577.712 -519.056)" fill="#ed6c3e"/>
      </g>
      <g id="Group_487" data-name="Group 487" transform="translate(56.617 102.456)">
        <path id="Path_721" data-name="Path 721" d="M635.361,604.316s-.011-.017-.015-.034v-.013l0-.007-1.332.083-46.865.68s.133-.473.365-1.094q.425-1.13.861-2.151l46.455-.485c.054.195.1.37.124.528.15.831.246,1.39.309,1.763A4.836,4.836,0,0,1,635.361,604.316Z" transform="translate(-587.144 -601.296)" fill="#636aab"/>
      </g>
      <g id="Group_489" data-name="Group 489" transform="translate(83.796 78.925)">
        <g id="Group_488" data-name="Group 488">
          <path id="Path_722" data-name="Path 722" d="M627.254,573.644s.131-3.471.336-4.328-1.77-1.827-2.007.295-.366,3.469-.366,3.469Z" transform="translate(-625.216 -568.334)" fill="#eea886"/>
        </g>
      </g>
      <g id="Group_490" data-name="Group 490" transform="translate(75.11 71.438)">
        <path id="Path_723" data-name="Path 723" d="M621.143,575.292l-6.437-.262a1.549,1.549,0,0,1-1.485-1.529l-.173-14.087a1.546,1.546,0,0,1,1.6-1.567l7.7.253a1.549,1.549,0,0,1,1.493,1.668l-1.1,14.1A1.547,1.547,0,0,1,621.143,575.292Z" transform="translate(-613.048 -557.846)" fill="#fff"/>
      </g>
      <g id="Group_492" data-name="Group 492" transform="translate(74.534 80.618)">
        <g id="Group_491" data-name="Group 491">
          <path id="Path_724" data-name="Path 724" d="M624.728,576.121s.118-1.321-2.417-2.53c-3.367-1.606-7.863-3.241-8.63-2.818-1.1.607-.535,1.447,1.593,2.149s2.831.927,2.831.927-4.163-.4-5.1.1-.986,1.648-.3,1.838a17.261,17.261,0,0,0,2.292.3s-1.765.067-1.943.775c-.13.527-.195,1.278,1.477,1.588a1.231,1.231,0,0,0,.566,2.066,29.557,29.557,0,0,0,6.324,1.795c3.214.527,10.477.136,10.477.136l-2.983-5.047a8.524,8.524,0,0,1-2.8-.258C624.571,576.622,624.728,576.121,624.728,576.121Z" transform="translate(-612.242 -570.705)" fill="#eea886"/>
        </g>
      </g>
      <g id="Group_493" data-name="Group 493" transform="translate(91.207 85.741)">
        <path id="Path_725" data-name="Path 725" d="M635.6,579.458l11.1-1.577,1.019,6.925Z" transform="translate(-635.596 -577.881)" fill="#eea886"/>
      </g>
      <g id="Group_494" data-name="Group 494" transform="translate(69.458 16.127)">
        <path id="Path_726" data-name="Path 726" d="M606.821,480.978s-1.171-1.385-1.608.009.993,5.538,1.151,6.137c0,0,.71,2.324.994,2.027S606.821,480.978,606.821,480.978Z" transform="translate(-605.131 -480.366)" fill="#eea886"/>
      </g>
      <g id="Group_495" data-name="Group 495" transform="translate(91.02 16.298)">
        <path id="Path_727" data-name="Path 727" d="M635.93,481.219s1.173-1.386,1.609.009-.994,5.538-1.151,6.138c0,0-.71,2.326-.993,2.029S635.93,481.219,635.93,481.219Z" transform="translate(-635.335 -480.606)" fill="#eea886"/>
      </g>
      <g id="Group_496" data-name="Group 496" transform="translate(70.411 3.399)">
        <path id="Path_728" data-name="Path 728" d="M619.275,462.629s10.755,1.628,9.181,18.29-11.066,15.341-11.7,15.327-9.522.346-10.291-19.985C606.467,476.261,606.108,461.225,619.275,462.629Z" transform="translate(-606.466 -462.536)" fill="#eea886"/>
      </g>
      <g id="Group_497" data-name="Group 497" transform="translate(70.225 3.061)">
        <path id="Path_729" data-name="Path 729" d="M608.455,475.128s11.935,3.492,17.649,2.376c0,0,1.042,2.23,1.863,2.358s.562-4.121.562-4.121.279-13.55-12.182-13.678-9.929,14.677-9.929,14.677l.17,2.53S608.372,479.963,608.455,475.128Z" transform="translate(-606.206 -462.063)" fill="#22334a"/>
      </g>
      <g id="Group_498" data-name="Group 498" transform="translate(76.018)">
        <path id="Path_730" data-name="Path 730" d="M614.435,464.433s-1.316-6.824,4.97-6.654c5.291.143,5.131,3.93,4.581,7.712S614.354,467.14,614.435,464.433Z" transform="translate(-614.32 -457.776)" fill="#22334a"/>
      </g>
      <g id="Group_499" data-name="Group 499" transform="translate(77.208 35.137)">
        <path id="Path_731" data-name="Path 731" d="M615.987,507.9a8.59,8.59,0,0,0,9.753-.9,5.231,5.231,0,0,1-5.039,3.387C616.714,510.435,615.987,507.9,615.987,507.9Z" transform="translate(-615.987 -506.996)" fill="#a77860"/>
      </g>
      <g id="Group_500" data-name="Group 500" transform="translate(92.057 86.951)">
        <path id="Path_732" data-name="Path 732" d="M636.787,579.822a24.32,24.32,0,0,1,.639,5.231,2.887,2.887,0,0,0,1.493-.063,17.439,17.439,0,0,0-.717-5.375A2.177,2.177,0,0,0,636.787,579.822Z" transform="translate(-636.787 -579.576)" fill="#26374f"/>
      </g>
      <g id="Group_501" data-name="Group 501" transform="translate(91.529 87.968)">
        <path id="Path_733" data-name="Path 733" d="M639.417,582.684A1.684,1.684,0,1,1,637.731,581,1.685,1.685,0,0,1,639.417,582.684Z" transform="translate(-636.048 -581.001)" fill="#26374f"/>
      </g>
    </g>
    <g id="Group_544" data-name="Group 544" transform="translate(912.174 473.486)">
      <g id="Group_503" data-name="Group 503" transform="translate(44.002 9.697)">
        <path id="Path_734" data-name="Path 734" d="M1143.98,324.18s2.892-6.324,8.734-3.553,4.878,11.162,2.709,14.707-9.922,8.784-7.4,15.169a71.9,71.9,0,0,0,5.715,11.324s-15.661-.709-17.407-9.028S1143.98,324.18,1143.98,324.18Z" transform="translate(-1136.115 -319.925)" fill="#223247"/>
      </g>
      <g id="Group_504" data-name="Group 504" transform="translate(92.187 107.657)">
        <path id="Path_735" data-name="Path 735" d="M1203.612,460.773s2.036,1.862,1.9,3.5-.293,6.77.386,7.289,1.383.06,1.455-.81.417-4.981.909-4.866c4.315,1,9.1,9.106,10.547,11.044.464.622,1.479.583,1.545-.233a46.6,46.6,0,0,0-4.163-10.22c-2.922-5.227-8.739-9.329-8.739-9.329Z" transform="translate(-1203.612 -457.147)" fill="#eea886"/>
      </g>
      <g id="Group_505" data-name="Group 505" transform="translate(25.646 15.711)">
        <path id="Path_736" data-name="Path 736" d="M1116.1,344.831l11.976-10.736-6.877-5.746-10.792,11.3Z" transform="translate(-1110.403 -328.349)" fill="#51578c"/>
      </g>
      <g id="Group_506" data-name="Group 506" transform="translate(26.742 16.815)">
        <path id="Path_737" data-name="Path 737" d="M1116.863,344.158l10.363-9.292-5.951-4.971-9.339,9.782Z" transform="translate(-1111.937 -329.895)" fill="#3e3b42"/>
      </g>
      <g id="Group_507" data-name="Group 507" transform="translate(24.375 27.422)">
        <path id="Path_738" data-name="Path 738" d="M1108.763,349.731a1.837,1.837,0,0,0,1.265-2.461c-.543-2.042.288-2.516.288-2.516l6.336,5.736s-3.051,2.8-3.98,2.915S1107.834,350.851,1108.763,349.731Z" transform="translate(-1108.621 -344.754)" fill="#e3a080"/>
      </g>
      <g id="Group_508" data-name="Group 508" transform="translate(29.634 27.075)">
        <path id="Path_739" data-name="Path 739" d="M1118.76,350.351s3.828-2.334,4.188-2.683a32.239,32.239,0,0,0,2.769-2.823c.7-.918-2.1-.679-2.909.275a4.518,4.518,0,0,1-2.1,1.441c-.561.213-3.962.418-4.632,1.361S1118.76,350.351,1118.76,350.351Z" transform="translate(-1115.988 -344.267)" fill="#e3a080"/>
      </g>
      <g id="Group_509" data-name="Group 509" transform="translate(26.992 24.225)">
        <path id="Path_740" data-name="Path 740" d="M1112.546,342.227a.461.461,0,0,0,.825-.095c.365-.658.328-2.169-.6-1.8S1112.546,342.227,1112.546,342.227Z" transform="translate(-1112.288 -340.275)" fill="#e3a080"/>
      </g>
      <g id="Group_510" data-name="Group 510" transform="translate(28.419 22.451)">
        <path id="Path_741" data-name="Path 741" d="M1114.292,339.509s.166,1.115.742.612,1.149-2.382.139-2.329S1114.292,339.509,1114.292,339.509Z" transform="translate(-1114.287 -337.79)" fill="#e3a080"/>
      </g>
      <g id="Group_511" data-name="Group 511" transform="translate(30.061 20.814)">
        <path id="Path_742" data-name="Path 742" d="M1116.592,337.215s0,1.349.674.958c.5-.3,1.217-2.728.209-2.675S1116.592,337.215,1116.592,337.215Z" transform="translate(-1116.587 -335.497)" fill="#e3a080"/>
      </g>
      <g id="Group_514" data-name="Group 514" transform="translate(27.646 234.985)">
        <g id="Group_513" data-name="Group 513">
          <g id="Group_512" data-name="Group 512">
            <path id="Path_743" data-name="Path 743" d="M1130.863,647.3c-2.416.727-3.14,4.832-5.195,6.041s-12.08,2.054-12.443-1.086,4.207-5.957,6.261-7.526,7.29-7.171,8.233-9.224a2.331,2.331,0,0,0,2.468,1.064c2.481-.2,3.057-.771,3.057-.771.395,2.472.758,4.158,1,5.1A5.042,5.042,0,0,1,1130.863,647.3Z" transform="translate(-1113.204 -635.507)" fill="#3f74a0"/>
          </g>
        </g>
      </g>
      <g id="Group_517" data-name="Group 517" transform="translate(46.071 234.899)">
        <g id="Group_516" data-name="Group 516">
          <g id="Group_515" data-name="Group 515">
            <path id="Path_744" data-name="Path 744" d="M1154.629,647.832c-1.864,1.7-2.219,4.405-4.273,5.614a10.764,10.764,0,0,1-3.139.946c-2.508.449-5.69.546-7.248-.363a1.715,1.715,0,0,1-.937-1.3c-.362-3.14,4.292-6.658,6.346-8.231,1.264-.965,2.574-3.213,3.615-5.276.651-1.291,1.194-2.507,1.556-3.3l.37-.536a1.744,1.744,0,0,0,.441.86,2.385,2.385,0,0,0,2.247.494,6.07,6.07,0,0,0,2.947-1.036c.013-.01.023-.021.031-.029s.024-.021.031-.03l.009-.009.006-.006h0c.406,1.964,1.043,3.969,1.286,4.912C1158.768,643.8,1156.392,646.224,1154.629,647.832Z" transform="translate(-1139.013 -635.387)" fill="#3f74a0"/>
          </g>
        </g>
      </g>
      <g id="Group_520" data-name="Group 520" transform="translate(18.501 84.411)">
        <g id="Group_519" data-name="Group 519">
          <g id="Group_518" data-name="Group 518">
            <path id="Path_745" data-name="Path 745" d="M1112.894,447.584s-6.612,23.043-7.766,28.924-4.382,34.363-4.727,39.208,10.794,27.554,11.4,29.188c2.355,6.341,11.966,29.335,11.966,29.335s6.211,3.689,5.515-1.713c-2.112-16.413-3.1-20.475-4.582-29-3.238-18.657-9.924-21.105-8.9-23.826,10.348-27.516,12.432-46.185,13.816-47.8s1.575.824,2.381,4.4-.326,28.18,1.128,37.678c.791,5.172,2.573,16.764,3.15,23.453s3.6,37.64,3.6,37.64.4,1.154,5.013-1.4c.764-.423,4.424-27.357,4.539-35.313s-3.4-9.092-.581-24.5c6.049-33.017,5.212-38.705-1.841-62.437C1129.74,393.362,1112.894,447.584,1112.894,447.584Z" transform="translate(-1100.394 -424.584)" fill="#eea886"/>
          </g>
        </g>
      </g>
      <g id="Group_523" data-name="Group 523" transform="translate(0 31.48)">
        <g id="Group_522" data-name="Group 522">
          <g id="Group_521" data-name="Group 521">
            <path id="Path_746" data-name="Path 746" d="M1166.226,431.736c.388-.091-8.874-19.228-10.343-21.883-2.719-4.915-3.937-6.005-6.137-10.7-2.26-4.827-9.785-17.554-11.352-22.008a13.191,13.191,0,0,1-.756,1.83c-3.291,6.722-4.359,15.077-4.8,22.467-.337,5.71,1.2,10.128,3.28,14.8.727,1.634,1.521,3.3,2.325,5.061,1.055,2.311,2.543,4.694.5,6.8-1.842,1.9-5.455,2.284-7.872,2.6-.562.072-1.152.143-1.766.21-5.867.63-13.821.817-19-1.318-7-2.887-5.744-11.7-6.494-17.848-.5-4.115-4.185-17.292-5.327-21.287-1.127-3.936.725-8.852,1.927-13.352-.747.259-1.595.553-2.511.863-6.92,2.334-17.9,5.6-21.388,2.67-4.188-3.523-1.04-7.953,1.663-11.711,4.438-6.172,16.988-13.983,20.051-18.5a47.727,47.727,0,0,1,5.607,5.258l-10.561,10.769c-.6.69-1.268,1.419-1.948,2.116-.177.183-.355.362-.533.538a.027.027,0,0,1-.007.009c1.271-.686,2.62-1.422,3.878-2.149h0c.966-.558,1.877-1.109,2.654-1.628,4.887-3.257,6.765-3.3,12.792-5.708a26.977,26.977,0,0,1,16.428-.832c3.716.944,6.106,1.513,9.714,2.332.6.136.967.218,1.177.263-.882-.234.814.173.033.009l.915.231c4.138,1.042,7.825,5.7,10.011,11.007,1.3,3.165,7.046,16.247,8.145,19.5,1.318,3.891,15.091,31.9,17.068,36.147C1173.6,428.3,1171.33,430.541,1166.226,431.736Z" transform="translate(-1074.477 -350.438)" fill="#eb4747"/>
          </g>
        </g>
      </g>
      <g id="Group_526" data-name="Group 526" transform="translate(36.027 38.781)">
        <g id="Group_525" data-name="Group 525">
          <g id="Group_524" data-name="Group 524">
            <path id="Path_747" data-name="Path 747" d="M1142.938,362.231s-6.094,12.169-12.833,14.709c0,0-6.643-5.9-4.855-14.637C1125.25,362.3,1134.591,358.666,1142.938,362.231Z" transform="translate(-1124.944 -360.665)" fill="#eea886"/>
          </g>
        </g>
      </g>
      <g id="Group_528" data-name="Group 528" transform="translate(15.213 102.535)">
        <g id="Group_527" data-name="Group 527">
          <path id="Path_748" data-name="Path 748" d="M1145.849,452.875s10.493,21.73,3.439,65.823c0,0-21.4-2.005-53.5-4.3,0,0,14.6-59.311,15.012-63.079S1145.849,452.875,1145.849,452.875Z" transform="translate(-1095.788 -449.971)" fill="#1e3a5e"/>
        </g>
      </g>
      <g id="Group_531" data-name="Group 531" transform="translate(41.695 232.867)">
        <g id="Group_530" data-name="Group 530">
          <g id="Group_529" data-name="Group 529">
            <path id="Path_749" data-name="Path 749" d="M1132.884,633.3a4.7,4.7,0,0,0,5.743-.76l.248,2.411s-4.271,4.284-5.526-.293Z" transform="translate(-1132.884 -632.541)" fill="#eea886"/>
          </g>
        </g>
      </g>
      <g id="Group_534" data-name="Group 534" transform="translate(57.979 232.441)">
        <g id="Group_533" data-name="Group 533">
          <g id="Group_532" data-name="Group 532">
            <path id="Path_750" data-name="Path 750" d="M1156.565,632.745s1.79,1.618,4.5-.8l.347,2.7s-4.456,4.335-5.713-.243Z" transform="translate(-1155.694 -631.944)" fill="#eea886"/>
          </g>
        </g>
      </g>
      <g id="Group_535" data-name="Group 535" transform="translate(16.313 49.622)">
        <path id="Path_751" data-name="Path 751" d="M1097.862,375.852c-.177.183-.355.362-.533.538A5.773,5.773,0,0,1,1097.862,375.852Z" transform="translate(-1097.329 -375.852)" fill="#eb4747"/>
      </g>
      <g id="Group_536" data-name="Group 536" transform="translate(23.423 52.594)">
        <path id="Path_752" data-name="Path 752" d="M1111.915,380.014c-.935,1.351-2.116,5.563-2.116,5.563-.747.259-1.595.553-2.511.863C1108.262,383.832,1111.805,380.128,1111.915,380.014Z" transform="translate(-1107.288 -380.014)" fill="#a83333"/>
      </g>
      <g id="Group_537" data-name="Group 537" transform="translate(52.106 10.782)">
        <path id="Path_753" data-name="Path 753" d="M1151.689,321.444s3.252,1.625,3.072,6.383-4.845,8.433-6.866,7.464S1151.689,321.444,1151.689,321.444Z" transform="translate(-1147.468 -321.444)" fill="#51578c"/>
      </g>
      <g id="Group_538" data-name="Group 538" transform="translate(29.913 1.9)">
        <path id="Path_754" data-name="Path 754" d="M1122.194,310.655a14.693,14.693,0,0,0-5.782,12.951c.541,8.8,3.494,17.589,5.3,18.372s9.2-2.506,10.721-3.313a22.477,22.477,0,0,0,5.622-4.839c.6-1.025,6.968-14.978.823-20.278S1129.542,308.005,1122.194,310.655Z" transform="translate(-1116.379 -309.002)" fill="#eea987"/>
      </g>
      <g id="Group_539" data-name="Group 539" transform="translate(37.462 23.316)">
        <path id="Path_755" data-name="Path 755" d="M1140.037,358.392s-3.192-8.253-.3-16.805-12.348,6.867-12.348,6.867.006.79,0,1.933c-.006.815-.02,1.81-.05,2.824a34.615,34.615,0,0,1-.37,4.879C1126.484,360.378,1140.037,358.392,1140.037,358.392Z" transform="translate(-1126.954 -339.002)" fill="#eea987"/>
      </g>
      <g id="Group_540" data-name="Group 540" transform="translate(29.853)">
        <path id="Path_756" data-name="Path 756" d="M1127.23,320.374a28.634,28.634,0,0,1-10.873,1.508s-1.775-15.542,13.8-15.542,13.28,15.539,12.98,17.648-3.928,9.68-7.264,11.435c0,0,1.964-8-.265-9.447S1128.374,322.784,1127.23,320.374Z" transform="translate(-1116.295 -306.341)" fill="#223247"/>
      </g>
      <g id="Group_541" data-name="Group 541" transform="translate(45.78 15.543)">
        <path id="Path_757" data-name="Path 757" d="M1138.793,330.52c.318-1.77,1.988-3.433,3.916-1.625s-1.325,6.324-2.711,6.082S1138.372,332.87,1138.793,330.52Z" transform="translate(-1138.605 -328.113)" fill="#eea987"/>
      </g>
      <g id="Group_542" data-name="Group 542" transform="translate(37.845 31.562)">
        <path id="Path_758" data-name="Path 758" d="M1127.49,356.515h0s6.224-2.047,8.121-5.962a47.2,47.2,0,0,1-8.073,3.138C1127.534,354.506,1127.52,355.5,1127.49,356.515Z" transform="translate(-1127.49 -350.553)" fill="#a77860"/>
      </g>
      <g id="Group_543" data-name="Group 543" transform="translate(46.126 97.205)">
        <path id="Path_759" data-name="Path 759" d="M1157.431,454.451c-1.842,1.9-5.455,2.284-7.872,2.6-.562.072-1.152.143-1.766.21-4.657-4.321-8.7-8.881-8.7-8.881l15.439-5.874.08.081c.727,1.634,1.521,3.3,2.325,5.061C1157.989,449.958,1159.478,452.342,1157.431,454.451Z" transform="translate(-1139.09 -442.506)" fill="#1e3a5e"/>
      </g>
    </g>
  </g>
</svg>
