<svg xmlns="http://www.w3.org/2000/svg" width="231.736" height="451.275" viewBox="0 0 231.736 451.275">
  <path id="_1" data-name="1" d="M287.967,192.541h-.7V105.727a29.179,29.179,0,0,0-29.179-29.179H88.564a29.18,29.18,0,0,0-29.18,29.179v43h-.617a1.093,1.093,0,0,0-1.093,1.093v13.1a1.093,1.093,0,0,0,1.093,1.093h.617v16.957H58.69a1.229,1.229,0,0,0-1.23,1.23v30.424a1.229,1.229,0,0,0,1.23,1.229h.694v10.077H58.69a1.229,1.229,0,0,0-1.23,1.23v30.424a1.229,1.229,0,0,0,1.23,1.229h.694V498.644a29.18,29.18,0,0,0,29.18,29.179H258.093a29.178,29.178,0,0,0,29.179-29.179V244.477h.7a1.229,1.229,0,0,0,1.229-1.228V193.769A1.229,1.229,0,0,0,287.967,192.541ZM275.853,493.82a21.76,21.76,0,0,1-21.735,21.736H92.539A21.762,21.762,0,0,1,70.8,493.82V107.612A21.761,21.761,0,0,1,92.539,85.876h17.954a4.018,4.018,0,0,1,3.839,2.883l2.508,8.643a10.234,10.234,0,0,0,9.779,7.345h93.414a10.235,10.235,0,0,0,9.781-7.345l2.508-8.643a4.016,4.016,0,0,1,3.838-2.883h17.956a21.76,21.76,0,0,1,21.735,21.736Z" transform="translate(-57.46 -76.548)" fill="#f1f1f1"/>
</svg>
