<svg xmlns="http://www.w3.org/2000/svg" width="269.034" height="523.907" viewBox="0 0 269.034 523.907">
  <path id="Path_806" data-name="Path 806" d="M325.067,211.21h-.807V110.423a33.875,33.875,0,0,0-33.875-33.875H93.57a33.876,33.876,0,0,0-33.877,33.875v49.92h-.716a1.269,1.269,0,0,0-1.268,1.268v15.214a1.269,1.269,0,0,0,1.268,1.268h.716V197.78h-.805a1.427,1.427,0,0,0-1.428,1.428v35.321a1.427,1.427,0,0,0,1.428,1.426h.805v11.7h-.805a1.427,1.427,0,0,0-1.428,1.428V284.4a1.427,1.427,0,0,0,1.428,1.426h.805V566.58A33.876,33.876,0,0,0,93.57,600.455H290.385A33.875,33.875,0,0,0,324.26,566.58V271.5h.807a1.426,1.426,0,0,0,1.426-1.426V212.636A1.426,1.426,0,0,0,325.067,211.21ZM311,560.979a25.262,25.262,0,0,1-25.233,25.235H98.185a25.264,25.264,0,0,1-25.236-25.235V112.612A25.264,25.264,0,0,1,98.185,87.377h20.844a4.665,4.665,0,0,1,4.457,3.347l2.912,10.034a11.881,11.881,0,0,0,11.353,8.528H246.2a11.882,11.882,0,0,0,11.355-8.528l2.912-10.034a4.662,4.662,0,0,1,4.456-3.347H285.77A25.262,25.262,0,0,1,311,112.612Z" transform="translate(-57.46 -76.548)" fill="#f1f1f1"/>
</svg>
