<svg xmlns="http://www.w3.org/2000/svg" width="30.468" height="34.485" viewBox="0 0 30.468 34.485">
  <path id="avatar" d="M118.415,118.864c0,.781-.477.928-.906.488-2.91-2.836-2-8.507-.906-12.564.43-1.711-.477-2.151-1.479-1.075a13.459,13.459,0,0,0-3.959,10.8c.811,10.511,8.73,15.108,18.222,13.836,6.059-.783,9.445-5.378,11.21-9.925,1.193-3.03,1.384-9.728.145-15.594-.526-2.249-1.957-7.236-4.056-8.36-2.48-1.32-7.632.929-9.683,2.542-5.582,4.4-8.682,13.054-8.587,19.85Z" transform="translate(-111.118 -96.074)" fill="#fff" fill-rule="evenodd"/>
</svg>
