<svg xmlns="http://www.w3.org/2000/svg" width="40.72" height="36.229" viewBox="0 0 40.72 36.229">
  <g id="icon-react" transform="translate(-648.64 -1422.562)">
    <path id="iconfinder_react_4691292" d="M20.36,15.809a3.629,3.629,0,1,0,3.629,3.629A3.629,3.629,0,0,0,20.36,15.809ZM10.193,26.657l-.8-.2C3.424,24.945,0,22.385,0,19.431s3.424-5.514,9.393-7.022l.8-.2.226.794a39.922,39.922,0,0,0,2.313,6.071l.171.361-.171.361a39.544,39.544,0,0,0-2.313,6.071l-.226.792ZM9.021,14.263C4.484,15.537,1.7,17.486,1.7,19.431S4.484,23.323,9.021,24.6a42.331,42.331,0,0,1,2.005-5.168,42,42,0,0,1-2.005-5.168ZM30.526,26.657l-.226-.8a39.629,39.629,0,0,0-2.314-6.069l-.171-.361.171-.361A39.735,39.735,0,0,0,30.3,13l.226-.794.8.2c5.967,1.508,9.391,4.069,9.391,7.024s-3.424,5.514-9.391,7.022Zm-.833-7.226A41.952,41.952,0,0,1,31.7,24.6c4.539-1.276,7.321-3.225,7.321-5.168s-2.784-3.892-7.321-5.168a42.058,42.058,0,0,1-2.005,5.168ZM9.009,14.254l-.226-.792C7.106,7.548,7.615,3.309,10.18,1.83,12.7.377,16.736,2.093,20.969,6.438l.577.592-.577.592a39.96,39.96,0,0,0-4.109,5.034l-.229.327-.4.034A40.137,40.137,0,0,0,9.81,14.052l-.8.2ZM12.226,3.006a2.367,2.367,0,0,0-1.2.294c-1.686.972-1.985,4.352-.823,8.913a42.623,42.623,0,0,1,5.485-.85,42.157,42.157,0,0,1,3.482-4.316c-2.647-2.577-5.153-4.04-6.948-4.04ZM28.5,37.553h0c-2.418,0-5.523-1.821-8.745-5.129l-.577-.592.577-.592A39.922,39.922,0,0,0,23.858,26.2l.229-.327.4-.034a40.091,40.091,0,0,0,6.425-1.033l.8-.2.227.794c1.675,5.911,1.167,10.151-1.4,11.629a4.038,4.038,0,0,1-2.044.523Zm-6.949-5.736c2.647,2.577,5.153,4.04,6.948,4.04h0a2.361,2.361,0,0,0,1.194-.294c1.686-.972,1.987-4.354.823-8.914a42.449,42.449,0,0,1-5.487.85A41.863,41.863,0,0,1,21.546,31.816ZM31.71,14.254l-.8-.2a39.835,39.835,0,0,0-6.425-1.035l-.4-.034-.229-.327a39.726,39.726,0,0,0-4.108-5.034l-.577-.592.577-.592C23.982,2.094,28.02.379,30.54,1.83c2.565,1.479,3.074,5.718,1.4,11.631l-.227.794Zm-6.685-2.893a42.312,42.312,0,0,1,5.487.85c1.164-4.561.864-7.94-.823-8.913s-4.827.516-8.144,3.746a42.161,42.161,0,0,1,3.48,4.316Zm-12.8,26.191a4.038,4.038,0,0,1-2.046-.523c-2.565-1.478-3.074-5.716-1.4-11.629l.224-.794.8.2a40.047,40.047,0,0,0,6.422,1.033l.4.034.227.327a40.034,40.034,0,0,0,4.109,5.036l.577.592-.577.592c-3.22,3.308-6.325,5.129-8.739,5.129Zm-2.019-10.9c-1.164,4.561-.864,7.942.823,8.914,1.675.955,4.824-.517,8.144-3.746A42.413,42.413,0,0,1,15.692,27.5a42.375,42.375,0,0,1-5.485-.85ZM20.36,27.714c-1.4,0-2.832-.061-4.269-.18l-.4-.034-.229-.327q-1.219-1.752-2.29-3.6t-1.978-3.78l-.17-.361.17-.361q.91-1.93,1.978-3.78c.7-1.215,1.474-2.426,2.29-3.6l.229-.327.4-.034a50.535,50.535,0,0,1,8.539,0l.4.034.227.327a50.909,50.909,0,0,1,4.27,7.38l.171.361-.171.361a50.221,50.221,0,0,1-4.27,7.38l-.227.327-.4.034c-1.437.119-2.874.18-4.27.18Zm-3.728-1.839a49.279,49.279,0,0,0,7.457,0,49.213,49.213,0,0,0,3.726-6.444,48.5,48.5,0,0,0-3.728-6.444,49.256,49.256,0,0,0-7.455,0A48.315,48.315,0,0,0,12.9,19.431a49.4,49.4,0,0,0,3.728,6.444Z" transform="translate(648.64 1421.238)" fill="#fff"/>
  </g>
</svg>
