<svg xmlns="http://www.w3.org/2000/svg" width="40" height="36.001" viewBox="0 0 40 36.001">
  <g id="icon-finder" transform="translate(-5 -9.498)">
    <path id="Path_804" data-name="Path 804" d="M5,31.561V26.133a.909.909,0,0,1,.909-.9H15.5l-4.176,7.237H5.909a.908.908,0,0,1-.909-.9m6.832,11.114L8.772,44.749c-.412.28-.7.1-.646-.392l.408-3.548a.555.555,0,0,1,.891-.449l2.369,1.353a.524.524,0,0,1,.039.962m.735-2L10.2,39.322a.9.9,0,0,1-.334-1.233L20.834,19.072a.913.913,0,0,1,1.243-.333l2.369,1.35a.907.907,0,0,1,.334,1.236L13.81,40.343a.916.916,0,0,1-1.243.332m8.348-8.209,4.176-7.237h2.4l3.391,7.237Zm13.6,2.16c-.948-.474-5.672-11.324-6.881-14.154S22.766,10.106,23.95,9.52c.842-.42,3.864,5.513,6.129,9.075s6.992,12.747,7.574,13.793-.557,1.923-1.189,2.184a1.829,1.829,0,0,1-1.947.053m3.1,4.986-1.427-2.244a.887.887,0,0,1,.337-1.289l1.36-.7a1,1,0,0,1,1.335.442l1.126,2.156a1.064,1.064,0,0,1-.38,1.389L39,39.948a1.026,1.026,0,0,1-1.379-.336M42.873,45.5c-.3-.951-2.575-1.014-3.594-2.446a1.634,1.634,0,0,1,.177-2.5c4.134-2.318,3.416,4.948,3.416,4.948M45,31.561a.908.908,0,0,1-.909.9h-4.8a2.715,2.715,0,0,0-.284-.82c-.125-.223-.441-.823-.881-1.66-.636-1.208-1.548-2.936-2.525-4.756H44.09a.909.909,0,0,1,.909.9v5.428Z" fill="#fff"/>
  </g>
</svg>
