<svg xmlns="http://www.w3.org/2000/svg" width="80" height="80" viewBox="0 0 80 80">
  <g id="Icon-Play-light" transform="translate(0)">
    <path id="Fill-124" d="M-79.8-189.8a40,40,0,0,1-40-40,40,40,0,0,1,40-40,40,40,0,0,1,40,40,40,40,0,0,1-40,40Zm0-75.649A35.786,35.786,0,0,0-115.449-229.8,35.786,35.786,0,0,0-79.8-194.151,35.786,35.786,0,0,0-44.151-229.8,35.678,35.678,0,0,0-79.8-265.449Z" transform="translate(119.8 269.8)" fill="#fff"/>
    <path id="Fill-125" d="M-103-215.125V-258.3l33.8,21.675-33.8,21.5Zm4.464-34.61v26.045l20.246-12.935-20.246-13.11Z" transform="translate(132.181 276.633)" fill="#fff"/>
  </g>
</svg>
