<svg xmlns="http://www.w3.org/2000/svg" width="29.032" height="33.87" viewBox="0 0 29.032 33.87">
  <g id="icon-1" transform="translate(-654.484 -1424.065)">
    <path id="iconfinder_language_1608752" d="M140.361,20.375q-.019.057-.236-.009t-.6-.217l-.378-.17a11.323,11.323,0,0,1-1.644-.926q-.132-.095-.775-.6t-.718-.539a32.194,32.194,0,0,1-2.533,3.421,14.048,14.048,0,0,1-1.985,2.079,1.5,1.5,0,0,1-.369.076.728.728,0,0,1-.35,0q.113-.076,1.55-1.739.4-.454,1.616-2.174a26.427,26.427,0,0,0,1.484-2.23q.321-.567.964-1.862a14.742,14.742,0,0,0,.68-1.465,15.525,15.525,0,0,0-2.079.624q-.151.038-.52.142t-.652.18a3.23,3.23,0,0,0-.321.095.321.321,0,0,0-.038.2.418.418,0,0,1-.019.18q-.095.189-.586.284a1.524,1.524,0,0,1-.888,0,.8.8,0,0,1-.529-.4.962.962,0,0,1-.094-.435,3.651,3.651,0,0,1,.463-.095,5.646,5.646,0,0,0,.558-.113q1.1-.3,1.985-.6,1.89-.662,1.928-.662a4.193,4.193,0,0,0,.813-.369,8.547,8.547,0,0,1,.832-.406q.17-.057.406-.151t.274-.1a.253.253,0,0,1,.113.009,2.149,2.149,0,0,1-.019.624,4.024,4.024,0,0,1-.236.51q-.236.473-.5,1.011t-.321.633a28.346,28.346,0,0,1-1.455,2.476l1.21.529q.227.113,1.408.6l1.276.529q.076.019.2.482A1.432,1.432,0,0,1,140.361,20.375Zm-3.875-9.186a.766.766,0,0,1-.076.529,1.713,1.713,0,0,1-.945.718,3.034,3.034,0,0,1-1.134.227,1.564,1.564,0,0,1-.926-.491,1.421,1.421,0,0,1-.34-.775l.019-.057a.809.809,0,0,0,.369.095,1.644,1.644,0,0,0,.5,0q.189-.038,1.1-.3a5.4,5.4,0,0,1,1.04-.265A.373.373,0,0,1,136.486,11.189Zm13.193,2.438,1.191,4.29-2.627-.794ZM128.737,28.748l13.117-4.385V4.858l-13.117,4.4Zm23.456-5.992,1.928.586L150.7,10.925l-1.89-.586L144.727,20.47l1.928.586.851-2.079,3.988,1.229ZM142.686,4.574l10.83,3.478V.869Zm5.878,25.006,2.986.246L150.53,32.85l-.756-1.247a14.012,14.012,0,0,1-5.217,2.041,9.059,9.059,0,0,1-1.72.227h-1.588a12.775,12.775,0,0,1-3.771-.737,12.55,12.55,0,0,1-3.468-1.607.394.394,0,0,1-.151-.3.365.365,0,0,1,.094-.255.317.317,0,0,1,.246-.1,1.064,1.064,0,0,1,.34.142l.576.312q.312.17.387.208a16.747,16.747,0,0,0,3.015,1.162,11.013,11.013,0,0,0,2.977.463,16.129,16.129,0,0,0,3.156-.274,15.578,15.578,0,0,0,2.967-.954q.284-.132.576-.293t.643-.359q.35-.2.539-.312Zm8.468-20.394V29.58L142.4,24.93q-.265.113-7.088,2.41t-6.955,2.3a.342.342,0,0,1-.34-.246.145.145,0,0,0-.019-.057V8.959a.846.846,0,0,1,.076-.189.85.85,0,0,1,.378-.208q2-.662,2.816-.945V.359L141.816,4.1q.038,0,3.034-1.04t5.973-2.051Q153.8,0,153.875,0q.378,0,.378.4V8.3Z" transform="translate(526.484 1424.065)" fill="#fff"/>
  </g>
</svg>
