<svg id="Icon-Play" xmlns="http://www.w3.org/2000/svg" width="24.325" height="24.325" viewBox="0 0 24.325 24.325">
  <path id="Fill-124" d="M-107.638-245.475A12.162,12.162,0,0,1-119.8-257.638,12.162,12.162,0,0,1-107.638-269.8a12.162,12.162,0,0,1,12.162,12.162,12.162,12.162,0,0,1-12.162,12.163Zm0-23a10.881,10.881,0,0,0-10.839,10.839A10.881,10.881,0,0,0-107.637-246.8,10.881,10.881,0,0,0-96.8-257.638a10.848,10.848,0,0,0-10.839-10.839Z" transform="translate(119.8 269.8)" fill="rgba(0,0,0,0.5)"/>
  <path id="Fill-125" d="M-103-245.73V-258.3l10.788,6.31L-103-245.73Zm1.425-10.076v7.582l6.463-3.766-6.463-3.817Z" transform="translate(111.549 264.152)" fill="rgba(0,0,0,0.5)"/>
</svg>
