<svg xmlns="http://www.w3.org/2000/svg" width="40.518" height="30.71" viewBox="0 0 40.518 30.71">
  <g id="icon-close-tag" transform="translate(191.273 43.576)">
    <path id="Path_795" data-name="Path 795" d="M-185.8-28.494l8.915-8.913a2.282,2.282,0,0,0,0-3.226,2.28,2.28,0,0,0-3.226,0L-190.6-30.142a2.267,2.267,0,0,0-.669,1.645,2.264,2.264,0,0,0,.669,1.643l10.492,10.492a2.282,2.282,0,0,0,3.226,0,2.28,2.28,0,0,0,0-3.226l-8.915-8.907Z" transform="translate(0 0.742)" fill="#fff"/>
    <path id="Path_796" data-name="Path 796" d="M-157.69-30.493l-10.492-10.492a2.282,2.282,0,0,0-3.227,0,2.277,2.277,0,0,0,0,3.223l8.913,8.912-8.913,8.915a2.278,2.278,0,0,0,0,3.224,2.282,2.282,0,0,0,3.227,0L-157.69-27.2a2.274,2.274,0,0,0,.669-1.645A2.307,2.307,0,0,0-157.69-30.493Z" transform="translate(6.266 0.628)" fill="#fff"/>
    <path id="Path_797" data-name="Path 797" d="M-174.544-14.951A2.487,2.487,0,0,1-177.4-12.9h0a2.488,2.488,0,0,1-2.049-2.857l4.229-25.737a2.486,2.486,0,0,1,2.856-2.049h0a2.486,2.486,0,0,1,2.049,2.857Z" transform="translate(3.848)" fill="#fff"/>
  </g>
</svg>
