<svg xmlns="http://www.w3.org/2000/svg" width="36.661" height="20.486" viewBox="0 0 36.661 20.486">
  <g id="icon-seo" transform="translate(0 -7)">
    <g id="Group_750" data-name="Group 750">
      <path id="Path_799" data-name="Path 799" d="M28.729,8H1V26.486H28.729l6.932-9.243Z" fill="none" stroke="#fff" stroke-linejoin="round" stroke-width="2"/>
    </g>
    <path id="Path_800" data-name="Path 800" d="M5,18.311v1.155a1.155,1.155,0,0,0,1.155,1.155H8.466a1.155,1.155,0,0,0,1.155-1.155V17.155A1.155,1.155,0,0,0,8.466,16H6.155" transform="translate(0.621 1.243)" fill="none" stroke="#fff" stroke-linejoin="round" stroke-width="2"/>
    <path id="Path_801" data-name="Path 801" d="M9.621,14.311V13.155A1.155,1.155,0,0,0,8.466,12H6.155A1.155,1.155,0,0,0,5,13.155v2.311a1.155,1.155,0,0,0,1.155,1.155H8.466" transform="translate(0.621 0.621)" fill="none" stroke="#fff" stroke-linejoin="round" stroke-width="2"/>
    <path id="Path_802" data-name="Path 802" d="M16.621,21.243H12V12h4.621" transform="translate(1.709 0.621)" fill="none" stroke="#fff" stroke-linejoin="round" stroke-width="2"/>
    <line id="Line_36" data-name="Line 36" x2="5" transform="translate(13.331 17.243)" fill="none" stroke="#fff" stroke-linejoin="round" stroke-width="2"/>
    <rect id="Rectangle_251" data-name="Rectangle 251" width="6" height="10" rx="1" transform="translate(20.331 12.243)" fill="none" stroke="#fff" stroke-linejoin="round" stroke-width="2"/>
    <line id="Line_37" data-name="Line 37" x1="2" transform="translate(30.331 17.243)" fill="none" stroke="#fff" stroke-linejoin="round" stroke-width="2"/>
  </g>
</svg>
