<svg xmlns="http://www.w3.org/2000/svg" width="24.64" height="35.591" viewBox="0 0 24.64 35.591">
  <g id="icon-phone" transform="translate(-7 -3)">
    <path id="Path_789" data-name="Path 789" d="M26.37,3H12.27A5.284,5.284,0,0,0,7,8.27v25.05a5.284,5.284,0,0,0,5.27,5.27h14.1a5.284,5.284,0,0,0,5.27-5.27V8.27A5.284,5.284,0,0,0,26.37,3ZM12.27,5.738h14.1A2.532,2.532,0,0,1,28.9,8.27v.205H9.738V8.27A2.532,2.532,0,0,1,12.27,5.738ZM28.9,33.321a2.532,2.532,0,0,1-2.532,2.532H12.27a2.532,2.532,0,0,1-2.532-2.532v-.205H28.9ZM9.738,30.378V11.213H28.9V30.378Z" fill="#fff"/>
    <path id="Path_790" data-name="Path 790" d="M17.1,12a4.107,4.107,0,0,0-1.369,7.967v2.984a1.369,1.369,0,1,0,2.738,0V19.967A4.107,4.107,0,0,0,17.1,12Zm0,5.476a1.369,1.369,0,1,1,1.369-1.369A1.369,1.369,0,0,1,17.1,17.476Z" transform="translate(2.222 3.32)" fill="#fff"/>
  </g>
</svg>
