<svg xmlns="http://www.w3.org/2000/svg" width="60" height="60" viewBox="0 0 60 60">
  <g id="icon-2" transform="translate(-639 -1411)">
    <rect id="Rectangle_228" data-name="Rectangle 228" width="60" height="60" rx="30" transform="translate(639 1411)" fill="#50d9c2"/>
    <path id="iconfinder_Simple_Business-26_5288447" d="M38.943,20.475a1.607,1.607,0,0,0-.8-1.366l-3.213-1.847,3.213-1.847a1.607,1.607,0,0,0,.08-2.731L21.352,2.241a1.607,1.607,0,0,0-1.687,0L2.8,12.684a1.607,1.607,0,0,0,0,2.731L6.01,17.262,2.8,19.11a1.607,1.607,0,0,0,0,2.811L6.01,23.688,2.8,25.536a1.607,1.607,0,0,0-.08,2.731L19.585,38.709a1.607,1.607,0,0,0,1.687,0L38.14,28.267a1.607,1.607,0,0,0-.08-2.731l-3.133-1.847,3.213-1.847A1.607,1.607,0,0,0,38.943,20.475ZM20.469,5.535,34.2,13.969,20.469,21.841,6.733,13.969Zm-.8,19.519.8.241.8-.241L31.714,19.11l2.41,1.366L20.469,28.267,6.813,20.475l2.41-1.366ZM34.2,26.9,20.469,35.416,6.733,26.982l2.49-1.446L19.665,31.48l.8.241.8-.241,10.442-5.944Z" transform="translate(648.56 1420.523)" fill="#fff"/>
  </g>
</svg>
