<svg xmlns="http://www.w3.org/2000/svg" width="29.076" height="22.002" viewBox="0 0 29.076 22.002">
  <path id="quote-right" d="M352.3,25.943a4.405,4.405,0,0,0,1.021,1.674,4.993,4.993,0,0,0,1.976,1.232,9.444,9.444,0,0,0,3.155.444H360.2A9.557,9.557,0,0,1,357.9,34.8a17.232,17.232,0,0,1-5.522,3.988L353.8,41a21.452,21.452,0,0,0,7.95-5.8q3.3-3.826,3.3-7.587a9.553,9.553,0,0,0-1.916-6.332A6.785,6.785,0,0,0,357.625,19a5.7,5.7,0,0,0-3.947,1.513A4.635,4.635,0,0,0,352,24.053a6.139,6.139,0,0,0,.3,1.89m16.03,0a4.409,4.409,0,0,0,1.019,1.674,5.025,5.025,0,0,0,1.974,1.232,9.474,9.474,0,0,0,3.157.444h1.752a9.54,9.54,0,0,1-2.306,5.51,17.232,17.232,0,0,1-5.522,3.988L369.829,41a21.47,21.47,0,0,0,7.95-5.8q3.3-3.826,3.3-7.587a9.558,9.558,0,0,0-1.917-6.332,6.779,6.779,0,0,0-5.5-2.283,5.694,5.694,0,0,0-3.948,1.513,4.635,4.635,0,0,0-1.678,3.539,6.068,6.068,0,0,0,.3,1.89" transform="translate(-352 -19.001)" fill="rgba(255,255,255,0.15)" fill-rule="evenodd"/>
</svg>
